solid ascii
  facet normal 0.000000e+000 1.000000e+000 0.000000e+000
    outer loop
      vertex   -1.659000e+002 8.100000e+000 -2.000000e-001
      vertex   -1.659000e+002 8.100000e+000 1.800000e+000
      vertex   -1.649000e+002 8.100000e+000 -2.000000e-001
    endloop
  endfacet
  facet normal 0.000000e+000 4.472136e-001 -0.000000e+000
    outer loop
      vertex   -1.649000e+002 8.100000e+000 -2.000000e-001
      vertex   -1.659000e+002 8.100000e+000 1.800000e+000
      vertex   -1.649000e+002 8.100000e+000 1.800000e+000
    endloop
  endfacet
  facet normal -1.000000e+000 0.000000e+000 0.000000e+000
    outer loop
      vertex   -1.649000e+002 5.810000e+001 -2.000000e-001
      vertex   -1.649000e+002 8.100000e+000 -2.000000e-001
      vertex   -1.649000e+002 5.810000e+001 1.800000e+000
    endloop
  endfacet
  facet normal -3.996804e-002 -0.000000e+000 0.000000e+000
    outer loop
      vertex   -1.649000e+002 5.810000e+001 1.800000e+000
      vertex   -1.649000e+002 8.100000e+000 -2.000000e-001
      vertex   -1.649000e+002 8.100000e+000 1.800000e+000
    endloop
  endfacet
  facet normal 0.000000e+000 -1.000000e+000 0.000000e+000
    outer loop
      vertex   -1.649000e+002 5.810000e+001 -2.000000e-001
      vertex   -1.649000e+002 5.810000e+001 1.800000e+000
      vertex   -1.659000e+002 5.810000e+001 -2.000000e-001
    endloop
  endfacet
  facet normal 0.000000e+000 -4.472136e-001 0.000000e+000
    outer loop
      vertex   -1.659000e+002 5.810000e+001 -2.000000e-001
      vertex   -1.649000e+002 5.810000e+001 1.800000e+000
      vertex   -1.659000e+002 5.810000e+001 1.800000e+000
    endloop
  endfacet
  facet normal 1.000000e+000 0.000000e+000 0.000000e+000
    outer loop
      vertex   -1.659000e+002 8.100000e+000 -2.000000e-001
      vertex   -1.659000e+002 5.810000e+001 -2.000000e-001
      vertex   -1.659000e+002 8.100000e+000 1.800000e+000
    endloop
  endfacet
  facet normal 3.996804e-002 -0.000000e+000 0.000000e+000
    outer loop
      vertex   -1.659000e+002 8.100000e+000 1.800000e+000
      vertex   -1.659000e+002 5.810000e+001 -2.000000e-001
      vertex   -1.659000e+002 5.810000e+001 1.800000e+000
    endloop
  endfacet
  facet normal 0.000000e+000 1.000000e+000 0.000000e+000
    outer loop
      vertex   -1.599000e+002 8.100000e+000 -2.000000e-001
      vertex   -1.599000e+002 8.100000e+000 1.800000e+000
      vertex   -1.589000e+002 8.100000e+000 -2.000000e-001
    endloop
  endfacet
  facet normal 0.000000e+000 4.472136e-001 -0.000000e+000
    outer loop
      vertex   -1.589000e+002 8.100000e+000 -2.000000e-001
      vertex   -1.599000e+002 8.100000e+000 1.800000e+000
      vertex   -1.589000e+002 8.100000e+000 1.800000e+000
    endloop
  endfacet
  facet normal -1.000000e+000 0.000000e+000 0.000000e+000
    outer loop
      vertex   -1.589000e+002 5.810000e+001 -2.000000e-001
      vertex   -1.589000e+002 8.100000e+000 -2.000000e-001
      vertex   -1.589000e+002 5.810000e+001 1.800000e+000
    endloop
  endfacet
  facet normal -3.996804e-002 -0.000000e+000 0.000000e+000
    outer loop
      vertex   -1.589000e+002 5.810000e+001 1.800000e+000
      vertex   -1.589000e+002 8.100000e+000 -2.000000e-001
      vertex   -1.589000e+002 8.100000e+000 1.800000e+000
    endloop
  endfacet
  facet normal 0.000000e+000 -1.000000e+000 0.000000e+000
    outer loop
      vertex   -1.589000e+002 5.810000e+001 -2.000000e-001
      vertex   -1.589000e+002 5.810000e+001 1.800000e+000
      vertex   -1.599000e+002 5.810000e+001 -2.000000e-001
    endloop
  endfacet
  facet normal 0.000000e+000 -4.472136e-001 0.000000e+000
    outer loop
      vertex   -1.599000e+002 5.810000e+001 -2.000000e-001
      vertex   -1.589000e+002 5.810000e+001 1.800000e+000
      vertex   -1.599000e+002 5.810000e+001 1.800000e+000
    endloop
  endfacet
  facet normal 1.000000e+000 0.000000e+000 0.000000e+000
    outer loop
      vertex   -1.599000e+002 8.100000e+000 -2.000000e-001
      vertex   -1.599000e+002 5.810000e+001 -2.000000e-001
      vertex   -1.599000e+002 8.100000e+000 1.800000e+000
    endloop
  endfacet
  facet normal 3.996804e-002 -0.000000e+000 0.000000e+000
    outer loop
      vertex   -1.599000e+002 8.100000e+000 1.800000e+000
      vertex   -1.599000e+002 5.810000e+001 -2.000000e-001
      vertex   -1.599000e+002 5.810000e+001 1.800000e+000
    endloop
  endfacet
  facet normal 0.000000e+000 1.000000e+000 0.000000e+000
    outer loop
      vertex   -1.679000e+002 8.100000e+000 -2.000000e-001
      vertex   -1.679000e+002 8.100000e+000 1.800000e+000
      vertex   -1.669000e+002 8.100000e+000 -2.000000e-001
    endloop
  endfacet
  facet normal 0.000000e+000 4.472136e-001 -0.000000e+000
    outer loop
      vertex   -1.669000e+002 8.100000e+000 -2.000000e-001
      vertex   -1.679000e+002 8.100000e+000 1.800000e+000
      vertex   -1.669000e+002 8.100000e+000 1.800000e+000
    endloop
  endfacet
  facet normal -1.000000e+000 0.000000e+000 0.000000e+000
    outer loop
      vertex   -1.669000e+002 5.810000e+001 -2.000000e-001
      vertex   -1.669000e+002 8.100000e+000 -2.000000e-001
      vertex   -1.669000e+002 5.810000e+001 1.800000e+000
    endloop
  endfacet
  facet normal -3.996804e-002 -0.000000e+000 0.000000e+000
    outer loop
      vertex   -1.669000e+002 5.810000e+001 1.800000e+000
      vertex   -1.669000e+002 8.100000e+000 -2.000000e-001
      vertex   -1.669000e+002 8.100000e+000 1.800000e+000
    endloop
  endfacet
  facet normal 0.000000e+000 -1.000000e+000 0.000000e+000
    outer loop
      vertex   -1.669000e+002 5.810000e+001 -2.000000e-001
      vertex   -1.669000e+002 5.810000e+001 1.800000e+000
      vertex   -1.679000e+002 5.810000e+001 -2.000000e-001
    endloop
  endfacet
  facet normal 0.000000e+000 -4.472136e-001 0.000000e+000
    outer loop
      vertex   -1.679000e+002 5.810000e+001 -2.000000e-001
      vertex   -1.669000e+002 5.810000e+001 1.800000e+000
      vertex   -1.679000e+002 5.810000e+001 1.800000e+000
    endloop
  endfacet
  facet normal 1.000000e+000 0.000000e+000 0.000000e+000
    outer loop
      vertex   -1.679000e+002 8.100000e+000 -2.000000e-001
      vertex   -1.679000e+002 5.810000e+001 -2.000000e-001
      vertex   -1.679000e+002 8.100000e+000 1.800000e+000
    endloop
  endfacet
  facet normal 3.996804e-002 -0.000000e+000 0.000000e+000
    outer loop
      vertex   -1.679000e+002 8.100000e+000 1.800000e+000
      vertex   -1.679000e+002 5.810000e+001 -2.000000e-001
      vertex   -1.679000e+002 5.810000e+001 1.800000e+000
    endloop
  endfacet
  facet normal 0.000000e+000 1.000000e+000 0.000000e+000
    outer loop
      vertex   -1.639000e+002 8.100000e+000 -2.000000e-001
      vertex   -1.639000e+002 8.100000e+000 1.800000e+000
      vertex   -1.629000e+002 8.100000e+000 -2.000000e-001
    endloop
  endfacet
  facet normal 0.000000e+000 4.472136e-001 -0.000000e+000
    outer loop
      vertex   -1.629000e+002 8.100000e+000 -2.000000e-001
      vertex   -1.639000e+002 8.100000e+000 1.800000e+000
      vertex   -1.629000e+002 8.100000e+000 1.800000e+000
    endloop
  endfacet
  facet normal -1.000000e+000 0.000000e+000 0.000000e+000
    outer loop
      vertex   -1.629000e+002 5.810000e+001 -2.000000e-001
      vertex   -1.629000e+002 8.100000e+000 -2.000000e-001
      vertex   -1.629000e+002 5.810000e+001 1.800000e+000
    endloop
  endfacet
  facet normal -3.996804e-002 -0.000000e+000 0.000000e+000
    outer loop
      vertex   -1.629000e+002 5.810000e+001 1.800000e+000
      vertex   -1.629000e+002 8.100000e+000 -2.000000e-001
      vertex   -1.629000e+002 8.100000e+000 1.800000e+000
    endloop
  endfacet
  facet normal 0.000000e+000 -1.000000e+000 0.000000e+000
    outer loop
      vertex   -1.629000e+002 5.810000e+001 -2.000000e-001
      vertex   -1.629000e+002 5.810000e+001 1.800000e+000
      vertex   -1.639000e+002 5.810000e+001 -2.000000e-001
    endloop
  endfacet
  facet normal 0.000000e+000 -4.472136e-001 0.000000e+000
    outer loop
      vertex   -1.639000e+002 5.810000e+001 -2.000000e-001
      vertex   -1.629000e+002 5.810000e+001 1.800000e+000
      vertex   -1.639000e+002 5.810000e+001 1.800000e+000
    endloop
  endfacet
  facet normal 1.000000e+000 0.000000e+000 0.000000e+000
    outer loop
      vertex   -1.639000e+002 8.100000e+000 -2.000000e-001
      vertex   -1.639000e+002 5.810000e+001 -2.000000e-001
      vertex   -1.639000e+002 8.100000e+000 1.800000e+000
    endloop
  endfacet
  facet normal 3.996804e-002 -0.000000e+000 0.000000e+000
    outer loop
      vertex   -1.639000e+002 8.100000e+000 1.800000e+000
      vertex   -1.639000e+002 5.810000e+001 -2.000000e-001
      vertex   -1.639000e+002 5.810000e+001 1.800000e+000
    endloop
  endfacet
  facet normal 0.000000e+000 1.000000e+000 0.000000e+000
    outer loop
      vertex   -1.619000e+002 8.100000e+000 -2.000000e-001
      vertex   -1.619000e+002 8.100000e+000 1.800000e+000
      vertex   -1.609000e+002 8.100000e+000 -2.000000e-001
    endloop
  endfacet
  facet normal 0.000000e+000 4.472136e-001 -0.000000e+000
    outer loop
      vertex   -1.609000e+002 8.100000e+000 -2.000000e-001
      vertex   -1.619000e+002 8.100000e+000 1.800000e+000
      vertex   -1.609000e+002 8.100000e+000 1.800000e+000
    endloop
  endfacet
  facet normal -1.000000e+000 0.000000e+000 0.000000e+000
    outer loop
      vertex   -1.609000e+002 5.810000e+001 -2.000000e-001
      vertex   -1.609000e+002 8.100000e+000 -2.000000e-001
      vertex   -1.609000e+002 5.810000e+001 1.800000e+000
    endloop
  endfacet
  facet normal -3.996804e-002 -0.000000e+000 0.000000e+000
    outer loop
      vertex   -1.609000e+002 5.810000e+001 1.800000e+000
      vertex   -1.609000e+002 8.100000e+000 -2.000000e-001
      vertex   -1.609000e+002 8.100000e+000 1.800000e+000
    endloop
  endfacet
  facet normal 0.000000e+000 -1.000000e+000 0.000000e+000
    outer loop
      vertex   -1.609000e+002 5.810000e+001 -2.000000e-001
      vertex   -1.609000e+002 5.810000e+001 1.800000e+000
      vertex   -1.619000e+002 5.810000e+001 -2.000000e-001
    endloop
  endfacet
  facet normal 0.000000e+000 -4.472136e-001 0.000000e+000
    outer loop
      vertex   -1.619000e+002 5.810000e+001 -2.000000e-001
      vertex   -1.609000e+002 5.810000e+001 1.800000e+000
      vertex   -1.619000e+002 5.810000e+001 1.800000e+000
    endloop
  endfacet
  facet normal 1.000000e+000 0.000000e+000 0.000000e+000
    outer loop
      vertex   -1.619000e+002 8.100000e+000 -2.000000e-001
      vertex   -1.619000e+002 5.810000e+001 -2.000000e-001
      vertex   -1.619000e+002 8.100000e+000 1.800000e+000
    endloop
  endfacet
  facet normal 3.996804e-002 -0.000000e+000 0.000000e+000
    outer loop
      vertex   -1.619000e+002 8.100000e+000 1.800000e+000
      vertex   -1.619000e+002 5.810000e+001 -2.000000e-001
      vertex   -1.619000e+002 5.810000e+001 1.800000e+000
    endloop
  endfacet
  facet normal 0.000000e+000 0.000000e+000 9.441984e-001
    outer loop
      vertex   -1.517577e+002 2.610178e+000 8.000000e-001
      vertex   -1.524000e+002 4.100000e+000 8.000000e-001
      vertex   -1.519000e+002 2.600000e+000 8.000000e-001
    endloop
  endfacet
  facet normal 0.000000e+000 0.000000e+000 9.255469e-001
    outer loop
      vertex   -1.519000e+002 2.600000e+000 8.000000e-001
      vertex   -1.524000e+002 4.100000e+000 8.000000e-001
      vertex   -1.744000e+002 4.100000e+000 8.000000e-001
    endloop
  endfacet
  facet normal 0.000000e+000 0.000000e+000 6.651901e-002
    outer loop
      vertex   -1.519000e+002 2.600000e+000 8.000000e-001
      vertex   -1.744000e+002 4.100000e+000 8.000000e-001
      vertex   -1.749000e+002 2.600000e+000 8.000000e-001
    endloop
  endfacet
  facet normal 0.000000e+000 -0.000000e+000 9.688251e-001
    outer loop
      vertex   -1.749000e+002 2.600000e+000 8.000000e-001
      vertex   -1.744000e+002 4.100000e+000 8.000000e-001
      vertex   -1.750423e+002 2.610178e+000 8.000000e-001
    endloop
  endfacet
  facet normal 0.000000e+000 -0.000000e+000 9.814599e-001
    outer loop
      vertex   -1.750423e+002 2.610178e+000 8.000000e-001
      vertex   -1.744000e+002 4.100000e+000 8.000000e-001
      vertex   -1.751817e+002 2.640507e+000 8.000000e-001
    endloop
  endfacet
  facet normal 0.000000e+000 -0.000000e+000 9.909365e-001
    outer loop
      vertex   -1.751817e+002 2.640507e+000 8.000000e-001
      vertex   -1.744000e+002 4.100000e+000 8.000000e-001
      vertex   -1.753154e+002 2.690368e+000 8.000000e-001
    endloop
  endfacet
  facet normal 0.000000e+000 -0.000000e+000 9.971007e-001
    outer loop
      vertex   -1.753154e+002 2.690368e+000 8.000000e-001
      vertex   -1.744000e+002 4.100000e+000 8.000000e-001
      vertex   -1.754406e+002 2.758746e+000 8.000000e-001
    endloop
  endfacet
  facet normal 0.000000e+000 -0.000000e+000 9.166631e-001
    outer loop
      vertex   -1.754406e+002 2.758746e+000 8.000000e-001
      vertex   -1.744000e+002 4.100000e+000 8.000000e-001
      vertex   -1.759000e+002 3.600000e+000 8.000000e-001
    endloop
  endfacet
  facet normal 0.000000e+000 0.000000e+000 4.153916e-001
    outer loop
      vertex   -1.754406e+002 2.758746e+000 8.000000e-001
      vertex   -1.759000e+002 3.600000e+000 8.000000e-001
      vertex   -1.755549e+002 2.844250e+000 8.000000e-001
    endloop
  endfacet
  facet normal 0.000000e+000 0.000000e+000 3.494759e-001
    outer loop
      vertex   -1.755549e+002 2.844250e+000 8.000000e-001
      vertex   -1.759000e+002 3.600000e+000 8.000000e-001
      vertex   -1.756557e+002 2.945139e+000 8.000000e-001
    endloop
  endfacet
  facet normal 0.000000e+000 0.000000e+000 2.817703e-001
    outer loop
      vertex   -1.756557e+002 2.945139e+000 8.000000e-001
      vertex   -1.759000e+002 3.600000e+000 8.000000e-001
      vertex   -1.757413e+002 3.059359e+000 8.000000e-001
    endloop
  endfacet
  facet normal 0.000000e+000 0.000000e+000 2.125570e-001
    outer loop
      vertex   -1.757413e+002 3.059359e+000 8.000000e-001
      vertex   -1.759000e+002 3.600000e+000 8.000000e-001
      vertex   -1.758096e+002 3.184585e+000 8.000000e-001
    endloop
  endfacet
  facet normal 0.000000e+000 0.000000e+000 1.423585e-001
    outer loop
      vertex   -1.758096e+002 3.184585e+000 8.000000e-001
      vertex   -1.759000e+002 3.600000e+000 8.000000e-001
      vertex   -1.758595e+002 3.318267e+000 8.000000e-001
    endloop
  endfacet
  facet normal 0.000000e+000 0.000000e+000 7.131109e-002
    outer loop
      vertex   -1.758595e+002 3.318267e+000 8.000000e-001
      vertex   -1.759000e+002 3.600000e+000 8.000000e-001
      vertex   -1.758898e+002 3.457685e+000 8.000000e-001
    endloop
  endfacet
  facet normal 0.000000e+000 -0.000000e+000 9.814615e-001
    outer loop
      vertex   -1.517577e+002 2.610178e+000 8.000000e-001
      vertex   -1.516183e+002 2.640507e+000 8.000000e-001
      vertex   -1.524000e+002 4.100000e+000 8.000000e-001
    endloop
  endfacet
  facet normal 0.000000e+000 0.000000e+000 8.411866e-002
    outer loop
      vertex   -1.524000e+002 4.100000e+000 8.000000e-001
      vertex   -1.516183e+002 2.640507e+000 8.000000e-001
      vertex   -1.514846e+002 2.690368e+000 8.000000e-001
    endloop
  endfacet
  facet normal 0.000000e+000 0.000000e+000 8.380455e-002
    outer loop
      vertex   -1.524000e+002 4.100000e+000 8.000000e-001
      vertex   -1.514846e+002 2.690368e+000 8.000000e-001
      vertex   -1.513594e+002 2.758746e+000 8.000000e-001
    endloop
  endfacet
  facet normal 0.000000e+000 0.000000e+000 5.556914e-001
    outer loop
      vertex   -1.524000e+002 4.100000e+000 8.000000e-001
      vertex   -1.513594e+002 2.758746e+000 8.000000e-001
      vertex   -1.509000e+002 3.600000e+000 8.000000e-001
    endloop
  endfacet
  facet normal 0.000000e+000 0.000000e+000 7.134600e-002
    outer loop
      vertex   -1.509000e+002 3.600000e+000 8.000000e-001
      vertex   -1.513594e+002 2.758746e+000 8.000000e-001
      vertex   -1.512451e+002 2.844250e+000 8.000000e-001
    endloop
  endfacet
  facet normal 0.000000e+000 0.000000e+000 7.132205e-002
    outer loop
      vertex   -1.509000e+002 3.600000e+000 8.000000e-001
      vertex   -1.512451e+002 2.844250e+000 8.000000e-001
      vertex   -1.511443e+002 2.945139e+000 8.000000e-001
    endloop
  endfacet
  facet normal 0.000000e+000 0.000000e+000 2.817507e-001
    outer loop
      vertex   -1.511443e+002 2.945139e+000 8.000000e-001
      vertex   -1.510587e+002 3.059359e+000 8.000000e-001
      vertex   -1.509000e+002 3.600000e+000 8.000000e-001
    endloop
  endfacet
  facet normal 0.000000e+000 0.000000e+000 7.132675e-002
    outer loop
      vertex   -1.509000e+002 3.600000e+000 8.000000e-001
      vertex   -1.510587e+002 3.059359e+000 8.000000e-001
      vertex   -1.509904e+002 3.184585e+000 8.000000e-001
    endloop
  endfacet
  facet normal 0.000000e+000 0.000000e+000 7.134421e-002
    outer loop
      vertex   -1.509000e+002 3.600000e+000 8.000000e-001
      vertex   -1.509904e+002 3.184585e+000 8.000000e-001
      vertex   -1.509405e+002 3.318267e+000 8.000000e-001
    endloop
  endfacet
  facet normal 0.000000e+000 0.000000e+000 7.136241e-002
    outer loop
      vertex   -1.509405e+002 3.318267e+000 8.000000e-001
      vertex   -1.509102e+002 3.457685e+000 8.000000e-001
      vertex   -1.509000e+002 3.600000e+000 8.000000e-001
    endloop
  endfacet
  facet normal 0.000000e+000 -0.000000e+000 9.486833e-001
    outer loop
      vertex   -1.509000e+002 3.600000e+000 8.000000e-001
      vertex   -1.509000e+002 3.310000e+001 8.000000e-001
      vertex   -1.524000e+002 4.100000e+000 8.000000e-001
    endloop
  endfacet
  facet normal 0.000000e+000 0.000000e+000 5.165509e-002
    outer loop
      vertex   -1.524000e+002 4.100000e+000 8.000000e-001
      vertex   -1.509000e+002 3.310000e+001 8.000000e-001
      vertex   -1.524000e+002 3.310000e+001 8.000000e-001
    endloop
  endfacet
  facet normal 0.000000e+000 0.000000e+000 1.000000e+000
    outer loop
      vertex   -1.524000e+002 3.310000e+001 8.000000e-001
      vertex   -1.509000e+002 3.310000e+001 8.000000e-001
      vertex   -1.524000e+002 6.210000e+001 8.000000e-001
    endloop
  endfacet
  facet normal -0.000000e+000 0.000000e+000 9.637516e-001
    outer loop
      vertex   -1.524000e+002 6.210000e+001 8.000000e-001
      vertex   -1.509000e+002 3.310000e+001 8.000000e-001
      vertex   -1.509000e+002 6.260000e+001 8.000000e-001
    endloop
  endfacet
  facet normal 0.000000e+000 0.000000e+000 5.556919e-001
    outer loop
      vertex   -1.524000e+002 6.210000e+001 8.000000e-001
      vertex   -1.509000e+002 6.260000e+001 8.000000e-001
      vertex   -1.513594e+002 6.344125e+001 8.000000e-001
    endloop
  endfacet
  facet normal 0.000000e+000 0.000000e+000 4.154452e-001
    outer loop
      vertex   -1.513594e+002 6.344125e+001 8.000000e-001
      vertex   -1.509000e+002 6.260000e+001 8.000000e-001
      vertex   -1.512451e+002 6.335575e+001 8.000000e-001
    endloop
  endfacet
  facet normal 0.000000e+000 0.000000e+000 3.493955e-001
    outer loop
      vertex   -1.512451e+002 6.335575e+001 8.000000e-001
      vertex   -1.509000e+002 6.260000e+001 8.000000e-001
      vertex   -1.511443e+002 6.325486e+001 8.000000e-001
    endloop
  endfacet
  facet normal 0.000000e+000 0.000000e+000 2.817520e-001
    outer loop
      vertex   -1.511443e+002 6.325486e+001 8.000000e-001
      vertex   -1.509000e+002 6.260000e+001 8.000000e-001
      vertex   -1.510587e+002 6.314064e+001 8.000000e-001
    endloop
  endfacet
  facet normal 0.000000e+000 0.000000e+000 2.125352e-001
    outer loop
      vertex   -1.510587e+002 6.314064e+001 8.000000e-001
      vertex   -1.509000e+002 6.260000e+001 8.000000e-001
      vertex   -1.509904e+002 6.301542e+001 8.000000e-001
    endloop
  endfacet
  facet normal 0.000000e+000 0.000000e+000 1.423247e-001
    outer loop
      vertex   -1.509904e+002 6.301542e+001 8.000000e-001
      vertex   -1.509000e+002 6.260000e+001 8.000000e-001
      vertex   -1.509405e+002 6.288173e+001 8.000000e-001
    endloop
  endfacet
  facet normal 0.000000e+000 0.000000e+000 7.136088e-002
    outer loop
      vertex   -1.509405e+002 6.288173e+001 8.000000e-001
      vertex   -1.509000e+002 6.260000e+001 8.000000e-001
      vertex   -1.509102e+002 6.274231e+001 8.000000e-001
    endloop
  endfacet
  facet normal 0.000000e+000 0.000000e+000 9.872174e-001
    outer loop
      vertex   -1.513594e+002 6.344125e+001 8.000000e-001
      vertex   -1.514846e+002 6.350963e+001 8.000000e-001
      vertex   -1.524000e+002 6.210000e+001 8.000000e-001
    endloop
  endfacet
  facet normal 0.000000e+000 0.000000e+000 8.411887e-002
    outer loop
      vertex   -1.524000e+002 6.210000e+001 8.000000e-001
      vertex   -1.514846e+002 6.350963e+001 8.000000e-001
      vertex   -1.516183e+002 6.355949e+001 8.000000e-001
    endloop
  endfacet
  facet normal 0.000000e+000 0.000000e+000 8.457910e-002
    outer loop
      vertex   -1.524000e+002 6.210000e+001 8.000000e-001
      vertex   -1.516183e+002 6.355949e+001 8.000000e-001
      vertex   -1.517577e+002 6.358982e+001 8.000000e-001
    endloop
  endfacet
  facet normal 0.000000e+000 0.000000e+000 9.441963e-001
    outer loop
      vertex   -1.517577e+002 6.358982e+001 8.000000e-001
      vertex   -1.519000e+002 6.360000e+001 8.000000e-001
      vertex   -1.524000e+002 6.210000e+001 8.000000e-001
    endloop
  endfacet
  facet normal 0.000000e+000 -0.000000e+000 9.676173e-001
    outer loop
      vertex   -1.524000e+002 6.210000e+001 8.000000e-001
      vertex   -1.519000e+002 6.360000e+001 8.000000e-001
      vertex   -1.749000e+002 6.360000e+001 8.000000e-001
    endloop
  endfacet
  facet normal 0.000000e+000 0.000000e+000 6.651901e-002
    outer loop
      vertex   -1.524000e+002 6.210000e+001 8.000000e-001
      vertex   -1.749000e+002 6.360000e+001 8.000000e-001
      vertex   -1.744000e+002 6.210000e+001 8.000000e-001
    endloop
  endfacet
  facet normal 0.000000e+000 0.000000e+000 8.520392e-002
    outer loop
      vertex   -1.744000e+002 6.210000e+001 8.000000e-001
      vertex   -1.749000e+002 6.360000e+001 8.000000e-001
      vertex   -1.750423e+002 6.358982e+001 8.000000e-001
    endloop
  endfacet
  facet normal 0.000000e+000 0.000000e+000 8.457860e-002
    outer loop
      vertex   -1.744000e+002 6.210000e+001 8.000000e-001
      vertex   -1.750423e+002 6.358982e+001 8.000000e-001
      vertex   -1.751817e+002 6.355949e+001 8.000000e-001
    endloop
  endfacet
  facet normal 0.000000e+000 0.000000e+000 9.909374e-001
    outer loop
      vertex   -1.751817e+002 6.355949e+001 8.000000e-001
      vertex   -1.753154e+002 6.350963e+001 8.000000e-001
      vertex   -1.744000e+002 6.210000e+001 8.000000e-001
    endloop
  endfacet
  facet normal 0.000000e+000 0.000000e+000 8.380398e-002
    outer loop
      vertex   -1.744000e+002 6.210000e+001 8.000000e-001
      vertex   -1.753154e+002 6.350963e+001 8.000000e-001
      vertex   -1.754406e+002 6.344125e+001 8.000000e-001
    endloop
  endfacet
  facet normal 0.000000e+000 0.000000e+000 5.556860e-001
    outer loop
      vertex   -1.744000e+002 6.210000e+001 8.000000e-001
      vertex   -1.754406e+002 6.344125e+001 8.000000e-001
      vertex   -1.759000e+002 6.260000e+001 8.000000e-001
    endloop
  endfacet
  facet normal 0.000000e+000 0.000000e+000 7.133278e-002
    outer loop
      vertex   -1.759000e+002 6.260000e+001 8.000000e-001
      vertex   -1.754406e+002 6.344125e+001 8.000000e-001
      vertex   -1.755549e+002 6.335575e+001 8.000000e-001
    endloop
  endfacet
  facet normal 0.000000e+000 0.000000e+000 7.134126e-002
    outer loop
      vertex   -1.759000e+002 6.260000e+001 8.000000e-001
      vertex   -1.755549e+002 6.335575e+001 8.000000e-001
      vertex   -1.756557e+002 6.325486e+001 8.000000e-001
    endloop
  endfacet
  facet normal 0.000000e+000 0.000000e+000 2.817717e-001
    outer loop
      vertex   -1.756557e+002 6.325486e+001 8.000000e-001
      vertex   -1.757413e+002 6.314064e+001 8.000000e-001
      vertex   -1.759000e+002 6.260000e+001 8.000000e-001
    endloop
  endfacet
  facet normal 0.000000e+000 0.000000e+000 7.133629e-002
    outer loop
      vertex   -1.759000e+002 6.260000e+001 8.000000e-001
      vertex   -1.757413e+002 6.314064e+001 8.000000e-001
      vertex   -1.758096e+002 6.301542e+001 8.000000e-001
    endloop
  endfacet
  facet normal 0.000000e+000 0.000000e+000 7.136216e-002
    outer loop
      vertex   -1.759000e+002 6.260000e+001 8.000000e-001
      vertex   -1.758096e+002 6.301542e+001 8.000000e-001
      vertex   -1.758595e+002 6.288173e+001 8.000000e-001
    endloop
  endfacet
  facet normal 0.000000e+000 0.000000e+000 7.130957e-002
    outer loop
      vertex   -1.758595e+002 6.288173e+001 8.000000e-001
      vertex   -1.758898e+002 6.274231e+001 8.000000e-001
      vertex   -1.759000e+002 6.260000e+001 8.000000e-001
    endloop
  endfacet
  facet normal 0.000000e+000 0.000000e+000 9.486833e-001
    outer loop
      vertex   -1.759000e+002 6.260000e+001 8.000000e-001
      vertex   -1.759000e+002 3.310000e+001 8.000000e-001
      vertex   -1.744000e+002 6.210000e+001 8.000000e-001
    endloop
  endfacet
  facet normal 0.000000e+000 0.000000e+000 5.165508e-002
    outer loop
      vertex   -1.744000e+002 6.210000e+001 8.000000e-001
      vertex   -1.759000e+002 3.310000e+001 8.000000e-001
      vertex   -1.744000e+002 3.310000e+001 8.000000e-001
    endloop
  endfacet
  facet normal 0.000000e+000 0.000000e+000 1.000000e+000
    outer loop
      vertex   -1.744000e+002 3.310000e+001 8.000000e-001
      vertex   -1.759000e+002 3.310000e+001 8.000000e-001
      vertex   -1.744000e+002 4.100000e+000 8.000000e-001
    endloop
  endfacet
  facet normal 0.000000e+000 0.000000e+000 9.637516e-001
    outer loop
      vertex   -1.744000e+002 4.100000e+000 8.000000e-001
      vertex   -1.759000e+002 3.310000e+001 8.000000e-001
      vertex   -1.759000e+002 3.600000e+000 8.000000e-001
    endloop
  endfacet
  facet normal 9.974526e-001 -7.133267e-002 0.000000e+000
    outer loop
      vertex   -1.509000e+002 3.600000e+000 8.000000e-001
      vertex   -1.509102e+002 3.457685e+000 8.000000e-001
      vertex   -1.509000e+002 3.600000e+000 -2.000000e-001
    endloop
  endfacet
  facet normal 9.874524e-001 -7.061751e-002 -1.734723e-018
    outer loop
      vertex   -1.509000e+002 3.600000e+000 -2.000000e-001
      vertex   -1.509102e+002 3.457685e+000 8.000000e-001
      vertex   -1.509102e+002 3.457685e+000 -2.000000e-001
    endloop
  endfacet
  facet normal 1.380201e-001 -3.003034e-002 0.000000e+000
    outer loop
      vertex   -1.509102e+002 3.457685e+000 -2.000000e-001
      vertex   -1.509102e+002 3.457685e+000 8.000000e-001
      vertex   -1.509405e+002 3.318267e+000 8.000000e-001
    endloop
  endfacet
  facet normal 9.673414e-001 -2.104737e-001 3.469447e-018
    outer loop
      vertex   -1.509102e+002 3.457685e+000 -2.000000e-001
      vertex   -1.509405e+002 3.318267e+000 8.000000e-001
      vertex   -1.509405e+002 3.318267e+000 -2.000000e-001
    endloop
  endfacet
  facet normal 1.323420e-001 -4.936577e-002 0.000000e+000
    outer loop
      vertex   -1.509405e+002 3.318267e+000 -2.000000e-001
      vertex   -1.509405e+002 3.318267e+000 8.000000e-001
      vertex   -1.509904e+002 3.184585e+000 8.000000e-001
    endloop
  endfacet
  facet normal 9.275450e-001 -3.459898e-001 0.000000e+000
    outer loop
      vertex   -1.509405e+002 3.318267e+000 -2.000000e-001
      vertex   -1.509904e+002 3.184585e+000 8.000000e-001
      vertex   -1.509904e+002 3.184585e+000 -2.000000e-001
    endloop
  endfacet
  facet normal 1.239706e-001 -6.768914e-002 0.000000e+000
    outer loop
      vertex   -1.509904e+002 3.184585e+000 -2.000000e-001
      vertex   -1.509904e+002 3.184585e+000 8.000000e-001
      vertex   -1.510587e+002 3.059359e+000 8.000000e-001
    endloop
  endfacet
  facet normal 8.688913e-001 -4.744232e-001 6.938894e-018
    outer loop
      vertex   -1.509904e+002 3.184585e+000 -2.000000e-001
      vertex   -1.510587e+002 3.059359e+000 8.000000e-001
      vertex   -1.510587e+002 3.059359e+000 -2.000000e-001
    endloop
  endfacet
  facet normal 1.130747e-001 -8.465291e-002 0.000000e+000
    outer loop
      vertex   -1.510587e+002 3.059359e+000 -2.000000e-001
      vertex   -1.510587e+002 3.059359e+000 8.000000e-001
      vertex   -1.511443e+002 2.945139e+000 8.000000e-001
    endloop
  endfacet
  facet normal 7.924938e-001 -5.932972e-001 -1.387779e-017
    outer loop
      vertex   -1.510587e+002 3.059359e+000 -2.000000e-001
      vertex   -1.511443e+002 2.945139e+000 8.000000e-001
      vertex   -1.511443e+002 2.945139e+000 -2.000000e-001
    endloop
  endfacet
  facet normal 9.987737e-002 -9.986463e-002 0.000000e+000
    outer loop
      vertex   -1.511443e+002 2.945139e+000 -2.000000e-001
      vertex   -1.511443e+002 2.945139e+000 8.000000e-001
      vertex   -1.512451e+002 2.844250e+000 8.000000e-001
    endloop
  endfacet
  facet normal 7.000631e-001 -6.999738e-001 0.000000e+000
    outer loop
      vertex   -1.511443e+002 2.945139e+000 -2.000000e-001
      vertex   -1.512451e+002 2.844250e+000 8.000000e-001
      vertex   -1.512451e+002 2.844250e+000 -2.000000e-001
    endloop
  endfacet
  facet normal 8.464674e-002 -1.130820e-001 0.000000e+000
    outer loop
      vertex   -1.512451e+002 2.844250e+000 -2.000000e-001
      vertex   -1.512451e+002 2.844250e+000 8.000000e-001
      vertex   -1.513594e+002 2.758746e+000 8.000000e-001
    endloop
  endfacet
  facet normal 5.932449e-001 -7.925326e-001 -1.387779e-017
    outer loop
      vertex   -1.512451e+002 2.844250e+000 -2.000000e-001
      vertex   -1.513594e+002 2.758746e+000 8.000000e-001
      vertex   -1.513594e+002 2.758746e+000 -2.000000e-001
    endloop
  endfacet
  facet normal 6.769288e-002 -1.239733e-001 0.000000e+000
    outer loop
      vertex   -1.513594e+002 2.758746e+000 -2.000000e-001
      vertex   -1.513594e+002 2.758746e+000 8.000000e-001
      vertex   -1.514846e+002 2.690368e+000 8.000000e-001
    endloop
  endfacet
  facet normal 4.744349e-001 -8.688842e-001 0.000000e+000
    outer loop
      vertex   -1.513594e+002 2.758746e+000 -2.000000e-001
      vertex   -1.514846e+002 2.690368e+000 8.000000e-001
      vertex   -1.514846e+002 2.690368e+000 -2.000000e-001
    endloop
  endfacet
  facet normal 4.936106e-002 -1.323420e-001 0.000000e+000
    outer loop
      vertex   -1.514846e+002 2.690368e+000 -2.000000e-001
      vertex   -1.514846e+002 2.690368e+000 8.000000e-001
      vertex   -1.516183e+002 2.640507e+000 8.000000e-001
    endloop
  endfacet
  facet normal 3.459609e-001 -9.275560e-001 0.000000e+000
    outer loop
      vertex   -1.514846e+002 2.690368e+000 -2.000000e-001
      vertex   -1.516183e+002 2.640507e+000 8.000000e-001
      vertex   -1.516183e+002 2.640507e+000 -2.000000e-001
    endloop
  endfacet
  facet normal 3.002444e-002 -1.380217e-001 0.000000e+000
    outer loop
      vertex   -1.516183e+002 2.640507e+000 -2.000000e-001
      vertex   -1.516183e+002 2.640507e+000 8.000000e-001
      vertex   -1.517577e+002 2.610178e+000 8.000000e-001
    endloop
  endfacet
  facet normal 2.104318e-001 -9.673505e-001 0.000000e+000
    outer loop
      vertex   -1.516183e+002 2.640507e+000 -2.000000e-001
      vertex   -1.517577e+002 2.610178e+000 8.000000e-001
      vertex   -1.517577e+002 2.610178e+000 -2.000000e-001
    endloop
  endfacet
  facet normal 1.007653e-002 -1.408770e-001 0.000000e+000
    outer loop
      vertex   -1.517577e+002 2.610178e+000 -2.000000e-001
      vertex   -1.517577e+002 2.610178e+000 8.000000e-001
      vertex   -1.519000e+002 2.600000e+000 8.000000e-001
    endloop
  endfacet
  facet normal 7.062974e-002 -9.874531e-001 0.000000e+000
    outer loop
      vertex   -1.517577e+002 2.610178e+000 -2.000000e-001
      vertex   -1.519000e+002 2.600000e+000 8.000000e-001
      vertex   -1.519000e+002 2.600000e+000 -2.000000e-001
    endloop
  endfacet
  facet normal 1.000000e+000 0.000000e+000 0.000000e+000
    outer loop
      vertex   -1.509000e+002 3.600000e+000 -2.000000e-001
      vertex   -1.509000e+002 3.310000e+001 -2.000000e-001
      vertex   -1.509000e+002 3.600000e+000 8.000000e-001
    endloop
  endfacet
  facet normal 3.387885e-002 -0.000000e+000 0.000000e+000
    outer loop
      vertex   -1.509000e+002 3.600000e+000 8.000000e-001
      vertex   -1.509000e+002 3.310000e+001 -2.000000e-001
      vertex   -1.509000e+002 3.310000e+001 8.000000e-001
    endloop
  endfacet
  facet normal 9.994259e-001 0.000000e+000 0.000000e+000
    outer loop
      vertex   -1.509000e+002 3.310000e+001 8.000000e-001
      vertex   -1.509000e+002 3.310000e+001 -2.000000e-001
      vertex   -1.509000e+002 6.260000e+001 -2.000000e-001
    endloop
  endfacet
  facet normal 3.387884e-002 -0.000000e+000 0.000000e+000
    outer loop
      vertex   -1.509000e+002 3.310000e+001 8.000000e-001
      vertex   -1.509000e+002 6.260000e+001 -2.000000e-001
      vertex   -1.509000e+002 6.260000e+001 8.000000e-001
    endloop
  endfacet
  facet normal 0.000000e+000 0.000000e+000 -5.148013e-001
    outer loop
      vertex   -1.659000e+002 5.810000e+001 -2.000000e-001
      vertex   -1.750423e+002 6.358982e+001 -2.000000e-001
      vertex   -1.649000e+002 5.810000e+001 -2.000000e-001
    endloop
  endfacet
  facet normal 0.000000e+000 0.000000e+000 -4.760194e-001
    outer loop
      vertex   -1.649000e+002 5.810000e+001 -2.000000e-001
      vertex   -1.750423e+002 6.358982e+001 -2.000000e-001
      vertex   -1.639000e+002 5.810000e+001 -2.000000e-001
    endloop
  endfacet
  facet normal 0.000000e+000 0.000000e+000 -1.000000e+000
    outer loop
      vertex   -1.649000e+002 5.810000e+001 -2.000000e-001
      vertex   -1.639000e+002 5.810000e+001 -2.000000e-001
      vertex   -1.649000e+002 8.100000e+000 -2.000000e-001
    endloop
  endfacet
  facet normal 0.000000e+000 0.000000e+000 -9.998001e-001
    outer loop
      vertex   -1.649000e+002 8.100000e+000 -2.000000e-001
      vertex   -1.639000e+002 5.810000e+001 -2.000000e-001
      vertex   -1.639000e+002 8.100000e+000 -2.000000e-001
    endloop
  endfacet
  facet normal 0.000000e+000 -0.000000e+000 -4.819188e-001
    outer loop
      vertex   -1.649000e+002 8.100000e+000 -2.000000e-001
      vertex   -1.639000e+002 8.100000e+000 -2.000000e-001
      vertex   -1.749000e+002 2.600000e+000 -2.000000e-001
    endloop
  endfacet
  facet normal 0.000000e+000 0.000000e+000 -3.387885e-002
    outer loop
      vertex   -1.749000e+002 2.600000e+000 -2.000000e-001
      vertex   -1.639000e+002 8.100000e+000 -2.000000e-001
      vertex   -1.629000e+002 8.100000e+000 -2.000000e-001
    endloop
  endfacet
  facet normal 0.000000e+000 0.000000e+000 -4.166547e-001
    outer loop
      vertex   -1.749000e+002 2.600000e+000 -2.000000e-001
      vertex   -1.629000e+002 8.100000e+000 -2.000000e-001
      vertex   -1.519000e+002 2.600000e+000 -2.000000e-001
    endloop
  endfacet
  facet normal 0.000000e+000 0.000000e+000 -3.918557e-002
    outer loop
      vertex   -1.519000e+002 2.600000e+000 -2.000000e-001
      vertex   -1.629000e+002 8.100000e+000 -2.000000e-001
      vertex   -1.619000e+002 8.100000e+000 -2.000000e-001
    endloop
  endfacet
  facet normal 0.000000e+000 0.000000e+000 -4.569028e-002
    outer loop
      vertex   -1.519000e+002 2.600000e+000 -2.000000e-001
      vertex   -1.619000e+002 8.100000e+000 -2.000000e-001
      vertex   -1.609000e+002 8.100000e+000 -2.000000e-001
    endloop
  endfacet
  facet normal 0.000000e+000 0.000000e+000 -1.000000e+000
    outer loop
      vertex   -1.659000e+002 8.100000e+000 -2.000000e-001
      vertex   -1.669000e+002 8.100000e+000 -2.000000e-001
      vertex   -1.659000e+002 5.810000e+001 -2.000000e-001
    endloop
  endfacet
  facet normal -0.000000e+000 0.000000e+000 -9.998001e-001
    outer loop
      vertex   -1.659000e+002 5.810000e+001 -2.000000e-001
      vertex   -1.669000e+002 8.100000e+000 -2.000000e-001
      vertex   -1.669000e+002 5.810000e+001 -2.000000e-001
    endloop
  endfacet
  facet normal 0.000000e+000 0.000000e+000 -5.148013e-001
    outer loop
      vertex   -1.659000e+002 5.810000e+001 -2.000000e-001
      vertex   -1.669000e+002 5.810000e+001 -2.000000e-001
      vertex   -1.750423e+002 6.358982e+001 -2.000000e-001
    endloop
  endfacet
  facet normal 0.000000e+000 0.000000e+000 -6.205735e-002
    outer loop
      vertex   -1.750423e+002 6.358982e+001 -2.000000e-001
      vertex   -1.669000e+002 5.810000e+001 -2.000000e-001
      vertex   -1.679000e+002 5.810000e+001 -2.000000e-001
    endloop
  endfacet
  facet normal 0.000000e+000 -0.000000e+000 -9.982791e-001
    outer loop
      vertex   -1.750423e+002 6.358982e+001 -2.000000e-001
      vertex   -1.679000e+002 5.810000e+001 -2.000000e-001
      vertex   -1.759000e+002 6.260000e+001 -2.000000e-001
    endloop
  endfacet
  facet normal 0.000000e+000 0.000000e+000 -8.715755e-001
    outer loop
      vertex   -1.759000e+002 6.260000e+001 -2.000000e-001
      vertex   -1.679000e+002 5.810000e+001 -2.000000e-001
      vertex   -1.759000e+002 3.310000e+001 -2.000000e-001
    endloop
  endfacet
  facet normal 0.000000e+000 0.000000e+000 -5.805516e-001
    outer loop
      vertex   -1.759000e+002 3.310000e+001 -2.000000e-001
      vertex   -1.679000e+002 5.810000e+001 -2.000000e-001
      vertex   -1.679000e+002 8.100000e+000 -2.000000e-001
    endloop
  endfacet
  facet normal 0.000000e+000 0.000000e+000 -3.047757e-001
    outer loop
      vertex   -1.759000e+002 3.310000e+001 -2.000000e-001
      vertex   -1.679000e+002 8.100000e+000 -2.000000e-001
      vertex   -1.759000e+002 3.600000e+000 -2.000000e-001
    endloop
  endfacet
  facet normal 0.000000e+000 0.000000e+000 -9.629641e-001
    outer loop
      vertex   -1.759000e+002 3.600000e+000 -2.000000e-001
      vertex   -1.679000e+002 8.100000e+000 -2.000000e-001
      vertex   -1.749000e+002 2.600000e+000 -2.000000e-001
    endloop
  endfacet
  facet normal 0.000000e+000 0.000000e+000 -7.134142e-002
    outer loop
      vertex   -1.759000e+002 3.600000e+000 -2.000000e-001
      vertex   -1.749000e+002 2.600000e+000 -2.000000e-001
      vertex   -1.750423e+002 2.610178e+000 -2.000000e-001
    endloop
  endfacet
  facet normal 0.000000e+000 -0.000000e+000 -5.665289e-001
    outer loop
      vertex   -1.669000e+002 8.100000e+000 -2.000000e-001
      vertex   -1.659000e+002 8.100000e+000 -2.000000e-001
      vertex   -1.749000e+002 2.600000e+000 -2.000000e-001
    endloop
  endfacet
  facet normal 0.000000e+000 0.000000e+000 -4.569028e-002
    outer loop
      vertex   -1.749000e+002 2.600000e+000 -2.000000e-001
      vertex   -1.659000e+002 8.100000e+000 -2.000000e-001
      vertex   -1.649000e+002 8.100000e+000 -2.000000e-001
    endloop
  endfacet
  facet normal 0.000000e+000 0.000000e+000 -5.665288e-001
    outer loop
      vertex   -1.599000e+002 5.810000e+001 -2.000000e-001
      vertex   -1.519000e+002 6.360000e+001 -2.000000e-001
      vertex   -1.589000e+002 5.810000e+001 -2.000000e-001
    endloop
  endfacet
  facet normal 0.000000e+000 0.000000e+000 -1.529768e-001
    outer loop
      vertex   -1.589000e+002 5.810000e+001 -2.000000e-001
      vertex   -1.519000e+002 6.360000e+001 -2.000000e-001
      vertex   -1.509000e+002 6.260000e+001 -2.000000e-001
    endloop
  endfacet
  facet normal 0.000000e+000 0.000000e+000 -9.795293e-001
    outer loop
      vertex   -1.589000e+002 5.810000e+001 -2.000000e-001
      vertex   -1.509000e+002 6.260000e+001 -2.000000e-001
      vertex   -1.509000e+002 3.310000e+001 -2.000000e-001
    endloop
  endfacet
  facet normal 0.000000e+000 0.000000e+000 -1.000000e+000
    outer loop
      vertex   -1.599000e+002 8.100000e+000 -2.000000e-001
      vertex   -1.609000e+002 8.100000e+000 -2.000000e-001
      vertex   -1.599000e+002 5.810000e+001 -2.000000e-001
    endloop
  endfacet
  facet normal -0.000000e+000 0.000000e+000 -9.998001e-001
    outer loop
      vertex   -1.599000e+002 5.810000e+001 -2.000000e-001
      vertex   -1.609000e+002 8.100000e+000 -2.000000e-001
      vertex   -1.609000e+002 5.810000e+001 -2.000000e-001
    endloop
  endfacet
  facet normal 0.000000e+000 0.000000e+000 -5.665288e-001
    outer loop
      vertex   -1.599000e+002 5.810000e+001 -2.000000e-001
      vertex   -1.609000e+002 5.810000e+001 -2.000000e-001
      vertex   -1.519000e+002 6.360000e+001 -2.000000e-001
    endloop
  endfacet
  facet normal 0.000000e+000 0.000000e+000 -4.569028e-002
    outer loop
      vertex   -1.519000e+002 6.360000e+001 -2.000000e-001
      vertex   -1.609000e+002 5.810000e+001 -2.000000e-001
      vertex   -1.619000e+002 5.810000e+001 -2.000000e-001
    endloop
  endfacet
  facet normal 0.000000e+000 0.000000e+000 -3.918556e-002
    outer loop
      vertex   -1.519000e+002 6.360000e+001 -2.000000e-001
      vertex   -1.619000e+002 5.810000e+001 -2.000000e-001
      vertex   -1.629000e+002 5.810000e+001 -2.000000e-001
    endloop
  endfacet
  facet normal 0.000000e+000 0.000000e+000 -1.000000e+000
    outer loop
      vertex   -1.629000e+002 5.810000e+001 -2.000000e-001
      vertex   -1.619000e+002 5.810000e+001 -2.000000e-001
      vertex   -1.629000e+002 8.100000e+000 -2.000000e-001
    endloop
  endfacet
  facet normal 0.000000e+000 0.000000e+000 -9.998001e-001
    outer loop
      vertex   -1.629000e+002 8.100000e+000 -2.000000e-001
      vertex   -1.619000e+002 5.810000e+001 -2.000000e-001
      vertex   -1.619000e+002 8.100000e+000 -2.000000e-001
    endloop
  endfacet
  facet normal 0.000000e+000 0.000000e+000 -5.214500e-001
    outer loop
      vertex   -1.609000e+002 8.100000e+000 -2.000000e-001
      vertex   -1.599000e+002 8.100000e+000 -2.000000e-001
      vertex   -1.519000e+002 2.600000e+000 -2.000000e-001
    endloop
  endfacet
  facet normal 0.000000e+000 0.000000e+000 -6.363886e-002
    outer loop
      vertex   -1.519000e+002 2.600000e+000 -2.000000e-001
      vertex   -1.599000e+002 8.100000e+000 -2.000000e-001
      vertex   -1.589000e+002 8.100000e+000 -2.000000e-001
    endloop
  endfacet
  facet normal 0.000000e+000 0.000000e+000 -9.928768e-001
    outer loop
      vertex   -1.519000e+002 2.600000e+000 -2.000000e-001
      vertex   -1.589000e+002 8.100000e+000 -2.000000e-001
      vertex   -1.509000e+002 3.600000e+000 -2.000000e-001
    endloop
  endfacet
  facet normal 0.000000e+000 0.000000e+000 -8.715755e-001
    outer loop
      vertex   -1.509000e+002 3.600000e+000 -2.000000e-001
      vertex   -1.589000e+002 8.100000e+000 -2.000000e-001
      vertex   -1.509000e+002 3.310000e+001 -2.000000e-001
    endloop
  endfacet
  facet normal -0.000000e+000 0.000000e+000 -5.805516e-001
    outer loop
      vertex   -1.509000e+002 3.310000e+001 -2.000000e-001
      vertex   -1.589000e+002 8.100000e+000 -2.000000e-001
      vertex   -1.589000e+002 5.810000e+001 -2.000000e-001
    endloop
  endfacet
  facet normal 0.000000e+000 -0.000000e+000 -6.178216e-001
    outer loop
      vertex   -1.679000e+002 8.100000e+000 -2.000000e-001
      vertex   -1.669000e+002 8.100000e+000 -2.000000e-001
      vertex   -1.749000e+002 2.600000e+000 -2.000000e-001
    endloop
  endfacet
  facet normal 0.000000e+000 0.000000e+000 -4.472136e-001
    outer loop
      vertex   -1.629000e+002 5.810000e+001 -2.000000e-001
      vertex   -1.639000e+002 5.810000e+001 -2.000000e-001
      vertex   -1.519000e+002 6.360000e+001 -2.000000e-001
    endloop
  endfacet
  facet normal -0.000000e+000 0.000000e+000 -4.166547e-001
    outer loop
      vertex   -1.519000e+002 6.360000e+001 -2.000000e-001
      vertex   -1.639000e+002 5.810000e+001 -2.000000e-001
      vertex   -1.749000e+002 6.360000e+001 -2.000000e-001
    endloop
  endfacet
  facet normal 0.000000e+000 -0.000000e+000 -5.098745e-001
    outer loop
      vertex   -1.749000e+002 6.360000e+001 -2.000000e-001
      vertex   -1.639000e+002 5.810000e+001 -2.000000e-001
      vertex   -1.750423e+002 6.358982e+001 -2.000000e-001
    endloop
  endfacet
  facet normal -0.000000e+000 0.000000e+000 -1.423618e-001
    outer loop
      vertex   -1.509102e+002 3.457685e+000 -2.000000e-001
      vertex   -1.509405e+002 3.318267e+000 -2.000000e-001
      vertex   -1.509000e+002 3.600000e+000 -2.000000e-001
    endloop
  endfacet
  facet normal 0.000000e+000 0.000000e+000 -7.134421e-002
    outer loop
      vertex   -1.509000e+002 3.600000e+000 -2.000000e-001
      vertex   -1.509405e+002 3.318267e+000 -2.000000e-001
      vertex   -1.509904e+002 3.184585e+000 -2.000000e-001
    endloop
  endfacet
  facet normal 0.000000e+000 0.000000e+000 -7.132675e-002
    outer loop
      vertex   -1.509000e+002 3.600000e+000 -2.000000e-001
      vertex   -1.509904e+002 3.184585e+000 -2.000000e-001
      vertex   -1.510587e+002 3.059359e+000 -2.000000e-001
    endloop
  endfacet
  facet normal -0.000000e+000 0.000000e+000 -3.494878e-001
    outer loop
      vertex   -1.510587e+002 3.059359e+000 -2.000000e-001
      vertex   -1.511443e+002 2.945139e+000 -2.000000e-001
      vertex   -1.509000e+002 3.600000e+000 -2.000000e-001
    endloop
  endfacet
  facet normal 0.000000e+000 0.000000e+000 -7.132205e-002
    outer loop
      vertex   -1.509000e+002 3.600000e+000 -2.000000e-001
      vertex   -1.511443e+002 2.945139e+000 -2.000000e-001
      vertex   -1.512451e+002 2.844250e+000 -2.000000e-001
    endloop
  endfacet
  facet normal 0.000000e+000 0.000000e+000 -7.134600e-002
    outer loop
      vertex   -1.509000e+002 3.600000e+000 -2.000000e-001
      vertex   -1.512451e+002 2.844250e+000 -2.000000e-001
      vertex   -1.513594e+002 2.758746e+000 -2.000000e-001
    endloop
  endfacet
  facet normal -0.000000e+000 0.000000e+000 -5.406445e-001
    outer loop
      vertex   -1.513594e+002 2.758746e+000 -2.000000e-001
      vertex   -1.514846e+002 2.690368e+000 -2.000000e-001
      vertex   -1.509000e+002 3.600000e+000 -2.000000e-001
    endloop
  endfacet
  facet normal 0.000000e+000 0.000000e+000 -7.133799e-002
    outer loop
      vertex   -1.509000e+002 3.600000e+000 -2.000000e-001
      vertex   -1.514846e+002 2.690368e+000 -2.000000e-001
      vertex   -1.516183e+002 2.640507e+000 -2.000000e-001
    endloop
  endfacet
  facet normal 0.000000e+000 0.000000e+000 -7.133935e-002
    outer loop
      vertex   -1.509000e+002 3.600000e+000 -2.000000e-001
      vertex   -1.516183e+002 2.640507e+000 -2.000000e-001
      vertex   -1.517577e+002 2.610178e+000 -2.000000e-001
    endloop
  endfacet
  facet normal -0.000000e+000 0.000000e+000 -7.070981e-001
    outer loop
      vertex   -1.517577e+002 2.610178e+000 -2.000000e-001
      vertex   -1.519000e+002 2.600000e+000 -2.000000e-001
      vertex   -1.509000e+002 3.600000e+000 -2.000000e-001
    endloop
  endfacet
  facet normal 0.000000e+000 0.000000e+000 -5.992814e-001
    outer loop
      vertex   -1.750423e+002 2.610178e+000 -2.000000e-001
      vertex   -1.751817e+002 2.640507e+000 -2.000000e-001
      vertex   -1.759000e+002 3.600000e+000 -2.000000e-001
    endloop
  endfacet
  facet normal 0.000000e+000 0.000000e+000 -7.133967e-002
    outer loop
      vertex   -1.759000e+002 3.600000e+000 -2.000000e-001
      vertex   -1.751817e+002 2.640507e+000 -2.000000e-001
      vertex   -1.753154e+002 2.690368e+000 -2.000000e-001
    endloop
  endfacet
  facet normal 0.000000e+000 0.000000e+000 -7.134276e-002
    outer loop
      vertex   -1.759000e+002 3.600000e+000 -2.000000e-001
      vertex   -1.753154e+002 2.690368e+000 -2.000000e-001
      vertex   -1.754406e+002 2.758746e+000 -2.000000e-001
    endloop
  endfacet
  facet normal 0.000000e+000 0.000000e+000 -4.153916e-001
    outer loop
      vertex   -1.754406e+002 2.758746e+000 -2.000000e-001
      vertex   -1.755549e+002 2.844250e+000 -2.000000e-001
      vertex   -1.759000e+002 3.600000e+000 -2.000000e-001
    endloop
  endfacet
  facet normal 0.000000e+000 0.000000e+000 -7.134245e-002
    outer loop
      vertex   -1.759000e+002 3.600000e+000 -2.000000e-001
      vertex   -1.755549e+002 2.844250e+000 -2.000000e-001
      vertex   -1.756557e+002 2.945139e+000 -2.000000e-001
    endloop
  endfacet
  facet normal 0.000000e+000 0.000000e+000 -7.135096e-002
    outer loop
      vertex   -1.759000e+002 3.600000e+000 -2.000000e-001
      vertex   -1.756557e+002 2.945139e+000 -2.000000e-001
      vertex   -1.757413e+002 3.059359e+000 -2.000000e-001
    endloop
  endfacet
  facet normal 0.000000e+000 0.000000e+000 -2.125570e-001
    outer loop
      vertex   -1.757413e+002 3.059359e+000 -2.000000e-001
      vertex   -1.758096e+002 3.184585e+000 -2.000000e-001
      vertex   -1.759000e+002 3.600000e+000 -2.000000e-001
    endloop
  endfacet
  facet normal 0.000000e+000 0.000000e+000 -7.136216e-002
    outer loop
      vertex   -1.759000e+002 3.600000e+000 -2.000000e-001
      vertex   -1.758096e+002 3.184585e+000 -2.000000e-001
      vertex   -1.758595e+002 3.318267e+000 -2.000000e-001
    endloop
  endfacet
  facet normal 0.000000e+000 0.000000e+000 -7.131031e-002
    outer loop
      vertex   -1.759000e+002 3.600000e+000 -2.000000e-001
      vertex   -1.758595e+002 3.318267e+000 -2.000000e-001
      vertex   -1.758898e+002 3.457685e+000 -2.000000e-001
    endloop
  endfacet
  facet normal 0.000000e+000 -0.000000e+000 -1.422560e-001
    outer loop
      vertex   -1.758898e+002 6.274231e+001 -2.000000e-001
      vertex   -1.758595e+002 6.288173e+001 -2.000000e-001
      vertex   -1.759000e+002 6.260000e+001 -2.000000e-001
    endloop
  endfacet
  facet normal 0.000000e+000 0.000000e+000 -7.136216e-002
    outer loop
      vertex   -1.759000e+002 6.260000e+001 -2.000000e-001
      vertex   -1.758595e+002 6.288173e+001 -2.000000e-001
      vertex   -1.758096e+002 6.301542e+001 -2.000000e-001
    endloop
  endfacet
  facet normal 0.000000e+000 0.000000e+000 -7.133629e-002
    outer loop
      vertex   -1.759000e+002 6.260000e+001 -2.000000e-001
      vertex   -1.758096e+002 6.301542e+001 -2.000000e-001
      vertex   -1.757413e+002 6.314064e+001 -2.000000e-001
    endloop
  endfacet
  facet normal 0.000000e+000 -0.000000e+000 -3.495135e-001
    outer loop
      vertex   -1.757413e+002 6.314064e+001 -2.000000e-001
      vertex   -1.756557e+002 6.325486e+001 -2.000000e-001
      vertex   -1.759000e+002 6.260000e+001 -2.000000e-001
    endloop
  endfacet
  facet normal 0.000000e+000 0.000000e+000 -7.134126e-002
    outer loop
      vertex   -1.759000e+002 6.260000e+001 -2.000000e-001
      vertex   -1.756557e+002 6.325486e+001 -2.000000e-001
      vertex   -1.755549e+002 6.335575e+001 -2.000000e-001
    endloop
  endfacet
  facet normal 0.000000e+000 0.000000e+000 -7.133278e-002
    outer loop
      vertex   -1.759000e+002 6.260000e+001 -2.000000e-001
      vertex   -1.755549e+002 6.335575e+001 -2.000000e-001
      vertex   -1.754406e+002 6.344125e+001 -2.000000e-001
    endloop
  endfacet
  facet normal 0.000000e+000 -0.000000e+000 -5.406569e-001
    outer loop
      vertex   -1.754406e+002 6.344125e+001 -2.000000e-001
      vertex   -1.753154e+002 6.350963e+001 -2.000000e-001
      vertex   -1.759000e+002 6.260000e+001 -2.000000e-001
    endloop
  endfacet
  facet normal 0.000000e+000 0.000000e+000 -7.133919e-002
    outer loop
      vertex   -1.759000e+002 6.260000e+001 -2.000000e-001
      vertex   -1.753154e+002 6.350963e+001 -2.000000e-001
      vertex   -1.751817e+002 6.355949e+001 -2.000000e-001
    endloop
  endfacet
  facet normal 0.000000e+000 0.000000e+000 -7.134157e-002
    outer loop
      vertex   -1.759000e+002 6.260000e+001 -2.000000e-001
      vertex   -1.751817e+002 6.355949e+001 -2.000000e-001
      vertex   -1.750423e+002 6.358982e+001 -2.000000e-001
    endloop
  endfacet
  facet normal 0.000000e+000 0.000000e+000 -6.548615e-001
    outer loop
      vertex   -1.519000e+002 6.360000e+001 -2.000000e-001
      vertex   -1.517577e+002 6.358982e+001 -2.000000e-001
      vertex   -1.509000e+002 6.260000e+001 -2.000000e-001
    endloop
  endfacet
  facet normal 0.000000e+000 0.000000e+000 -7.134019e-002
    outer loop
      vertex   -1.509000e+002 6.260000e+001 -2.000000e-001
      vertex   -1.517577e+002 6.358982e+001 -2.000000e-001
      vertex   -1.516183e+002 6.355949e+001 -2.000000e-001
    endloop
  endfacet
  facet normal 0.000000e+000 0.000000e+000 -7.133751e-002
    outer loop
      vertex   -1.509000e+002 6.260000e+001 -2.000000e-001
      vertex   -1.516183e+002 6.355949e+001 -2.000000e-001
      vertex   -1.514846e+002 6.350963e+001 -2.000000e-001
    endloop
  endfacet
  facet normal 0.000000e+000 0.000000e+000 -4.792522e-001
    outer loop
      vertex   -1.514846e+002 6.350963e+001 -2.000000e-001
      vertex   -1.513594e+002 6.344125e+001 -2.000000e-001
      vertex   -1.509000e+002 6.260000e+001 -2.000000e-001
    endloop
  endfacet
  facet normal 0.000000e+000 0.000000e+000 -7.134672e-002
    outer loop
      vertex   -1.509000e+002 6.260000e+001 -2.000000e-001
      vertex   -1.513594e+002 6.344125e+001 -2.000000e-001
      vertex   -1.512451e+002 6.335575e+001 -2.000000e-001
    endloop
  endfacet
  facet normal 0.000000e+000 0.000000e+000 -7.132086e-002
    outer loop
      vertex   -1.509000e+002 6.260000e+001 -2.000000e-001
      vertex   -1.512451e+002 6.335575e+001 -2.000000e-001
      vertex   -1.511443e+002 6.325486e+001 -2.000000e-001
    endloop
  endfacet
  facet normal 0.000000e+000 0.000000e+000 -2.817520e-001
    outer loop
      vertex   -1.511443e+002 6.325486e+001 -2.000000e-001
      vertex   -1.510587e+002 6.314064e+001 -2.000000e-001
      vertex   -1.509000e+002 6.260000e+001 -2.000000e-001
    endloop
  endfacet
  facet normal 0.000000e+000 0.000000e+000 -7.132722e-002
    outer loop
      vertex   -1.509000e+002 6.260000e+001 -2.000000e-001
      vertex   -1.510587e+002 6.314064e+001 -2.000000e-001
      vertex   -1.509904e+002 6.301542e+001 -2.000000e-001
    endloop
  endfacet
  facet normal 0.000000e+000 0.000000e+000 -7.134421e-002
    outer loop
      vertex   -1.509000e+002 6.260000e+001 -2.000000e-001
      vertex   -1.509904e+002 6.301542e+001 -2.000000e-001
      vertex   -1.509405e+002 6.288173e+001 -2.000000e-001
    endloop
  endfacet
  facet normal 0.000000e+000 0.000000e+000 -7.136088e-002
    outer loop
      vertex   -1.509405e+002 6.288173e+001 -2.000000e-001
      vertex   -1.509102e+002 6.274231e+001 -2.000000e-001
      vertex   -1.509000e+002 6.260000e+001 -2.000000e-001
    endloop
  endfacet
  facet normal -7.133730e-002 -9.974523e-001 -0.000000e+000
    outer loop
      vertex   -1.749000e+002 2.600000e+000 8.000000e-001
      vertex   -1.750423e+002 2.610178e+000 8.000000e-001
      vertex   -1.749000e+002 2.600000e+000 -2.000000e-001
    endloop
  endfacet
  facet normal -7.062205e-002 -9.874515e-001 0.000000e+000
    outer loop
      vertex   -1.749000e+002 2.600000e+000 -2.000000e-001
      vertex   -1.750423e+002 2.610178e+000 8.000000e-001
      vertex   -1.750423e+002 2.610178e+000 -2.000000e-001
    endloop
  endfacet
  facet normal -3.002444e-002 -1.380217e-001 0.000000e+000
    outer loop
      vertex   -1.750423e+002 2.610178e+000 -2.000000e-001
      vertex   -1.750423e+002 2.610178e+000 8.000000e-001
      vertex   -1.751817e+002 2.640507e+000 8.000000e-001
    endloop
  endfacet
  facet normal -2.104318e-001 -9.673505e-001 0.000000e+000
    outer loop
      vertex   -1.750423e+002 2.610178e+000 -2.000000e-001
      vertex   -1.751817e+002 2.640507e+000 8.000000e-001
      vertex   -1.751817e+002 2.640507e+000 -2.000000e-001
    endloop
  endfacet
  facet normal -4.936106e-002 -1.323420e-001 0.000000e+000
    outer loop
      vertex   -1.751817e+002 2.640507e+000 -2.000000e-001
      vertex   -1.751817e+002 2.640507e+000 8.000000e-001
      vertex   -1.753154e+002 2.690368e+000 8.000000e-001
    endloop
  endfacet
  facet normal -3.459609e-001 -9.275560e-001 0.000000e+000
    outer loop
      vertex   -1.751817e+002 2.640507e+000 -2.000000e-001
      vertex   -1.753154e+002 2.690368e+000 8.000000e-001
      vertex   -1.753154e+002 2.690368e+000 -2.000000e-001
    endloop
  endfacet
  facet normal -6.769288e-002 -1.239733e-001 0.000000e+000
    outer loop
      vertex   -1.753154e+002 2.690368e+000 -2.000000e-001
      vertex   -1.753154e+002 2.690368e+000 8.000000e-001
      vertex   -1.754406e+002 2.758746e+000 8.000000e-001
    endloop
  endfacet
  facet normal -4.744349e-001 -8.688842e-001 0.000000e+000
    outer loop
      vertex   -1.753154e+002 2.690368e+000 -2.000000e-001
      vertex   -1.754406e+002 2.758746e+000 8.000000e-001
      vertex   -1.754406e+002 2.758746e+000 -2.000000e-001
    endloop
  endfacet
  facet normal -8.464689e-002 -1.130671e-001 0.000000e+000
    outer loop
      vertex   -1.754406e+002 2.758746e+000 -2.000000e-001
      vertex   -1.754406e+002 2.758746e+000 8.000000e-001
      vertex   -1.755549e+002 2.844250e+000 8.000000e-001
    endloop
  endfacet
  facet normal -5.932966e-001 -7.924960e-001 -1.387779e-017
    outer loop
      vertex   -1.754406e+002 2.758746e+000 -2.000000e-001
      vertex   -1.755549e+002 2.844250e+000 8.000000e-001
      vertex   -1.755549e+002 2.844250e+000 -2.000000e-001
    endloop
  endfacet
  facet normal -9.987722e-002 -9.987959e-002 0.000000e+000
    outer loop
      vertex   -1.755549e+002 2.844250e+000 -2.000000e-001
      vertex   -1.755549e+002 2.844250e+000 8.000000e-001
      vertex   -1.756557e+002 2.945139e+000 8.000000e-001
    endloop
  endfacet
  facet normal -7.000091e-001 -7.000256e-001 -1.387779e-017
    outer loop
      vertex   -1.755549e+002 2.844250e+000 -2.000000e-001
      vertex   -1.756557e+002 2.945139e+000 8.000000e-001
      vertex   -1.756557e+002 2.945139e+000 -2.000000e-001
    endloop
  endfacet
  facet normal -1.130747e-001 -8.465291e-002 0.000000e+000
    outer loop
      vertex   -1.756557e+002 2.945139e+000 -2.000000e-001
      vertex   -1.756557e+002 2.945139e+000 8.000000e-001
      vertex   -1.757413e+002 3.059359e+000 8.000000e-001
    endloop
  endfacet
  facet normal -7.924938e-001 -5.932972e-001 1.387779e-017
    outer loop
      vertex   -1.756557e+002 2.945139e+000 -2.000000e-001
      vertex   -1.757413e+002 3.059359e+000 8.000000e-001
      vertex   -1.757413e+002 3.059359e+000 -2.000000e-001
    endloop
  endfacet
  facet normal -1.239706e-001 -6.768914e-002 0.000000e+000
    outer loop
      vertex   -1.757413e+002 3.059359e+000 -2.000000e-001
      vertex   -1.757413e+002 3.059359e+000 8.000000e-001
      vertex   -1.758096e+002 3.184585e+000 8.000000e-001
    endloop
  endfacet
  facet normal -8.688913e-001 -4.744232e-001 -6.938894e-018
    outer loop
      vertex   -1.757413e+002 3.059359e+000 -2.000000e-001
      vertex   -1.758096e+002 3.184585e+000 8.000000e-001
      vertex   -1.758096e+002 3.184585e+000 -2.000000e-001
    endloop
  endfacet
  facet normal -1.323420e-001 -4.936577e-002 0.000000e+000
    outer loop
      vertex   -1.758096e+002 3.184585e+000 -2.000000e-001
      vertex   -1.758096e+002 3.184585e+000 8.000000e-001
      vertex   -1.758595e+002 3.318267e+000 8.000000e-001
    endloop
  endfacet
  facet normal -9.275450e-001 -3.459898e-001 0.000000e+000
    outer loop
      vertex   -1.758096e+002 3.184585e+000 -2.000000e-001
      vertex   -1.758595e+002 3.318267e+000 8.000000e-001
      vertex   -1.758595e+002 3.318267e+000 -2.000000e-001
    endloop
  endfacet
  facet normal -1.380202e-001 -3.001525e-002 0.000000e+000
    outer loop
      vertex   -1.758595e+002 3.318267e+000 -2.000000e-001
      vertex   -1.758595e+002 3.318267e+000 8.000000e-001
      vertex   -1.758898e+002 3.457685e+000 8.000000e-001
    endloop
  endfacet
  facet normal -9.673639e-001 -2.103727e-001 3.469447e-018
    outer loop
      vertex   -1.758595e+002 3.318267e+000 -2.000000e-001
      vertex   -1.758898e+002 3.457685e+000 8.000000e-001
      vertex   -1.758898e+002 3.457685e+000 -2.000000e-001
    endloop
  endfacet
  facet normal -1.408879e-001 -1.007557e-002 0.000000e+000
    outer loop
      vertex   -1.758898e+002 3.457685e+000 -2.000000e-001
      vertex   -1.758898e+002 3.457685e+000 8.000000e-001
      vertex   -1.759000e+002 3.600000e+000 8.000000e-001
    endloop
  endfacet
  facet normal -9.874524e-001 -7.061751e-002 1.734723e-018
    outer loop
      vertex   -1.758898e+002 3.457685e+000 -2.000000e-001
      vertex   -1.759000e+002 3.600000e+000 8.000000e-001
      vertex   -1.759000e+002 3.600000e+000 -2.000000e-001
    endloop
  endfacet
  facet normal -1.000000e+000 0.000000e+000 0.000000e+000
    outer loop
      vertex   -1.759000e+002 3.600000e+000 8.000000e-001
      vertex   -1.759000e+002 3.310000e+001 8.000000e-001
      vertex   -1.759000e+002 3.600000e+000 -2.000000e-001
    endloop
  endfacet
  facet normal -3.387885e-002 0.000000e+000 0.000000e+000
    outer loop
      vertex   -1.759000e+002 3.600000e+000 -2.000000e-001
      vertex   -1.759000e+002 3.310000e+001 8.000000e-001
      vertex   -1.759000e+002 3.310000e+001 -2.000000e-001
    endloop
  endfacet
  facet normal -9.994259e-001 0.000000e+000 0.000000e+000
    outer loop
      vertex   -1.759000e+002 3.310000e+001 -2.000000e-001
      vertex   -1.759000e+002 3.310000e+001 8.000000e-001
      vertex   -1.759000e+002 6.260000e+001 8.000000e-001
    endloop
  endfacet
  facet normal -3.387884e-002 0.000000e+000 0.000000e+000
    outer loop
      vertex   -1.759000e+002 3.310000e+001 -2.000000e-001
      vertex   -1.759000e+002 6.260000e+001 8.000000e-001
      vertex   -1.759000e+002 6.260000e+001 -2.000000e-001
    endloop
  endfacet
  facet normal -9.974526e-001 7.133255e-002 0.000000e+000
    outer loop
      vertex   -1.759000e+002 6.260000e+001 8.000000e-001
      vertex   -1.758898e+002 6.274231e+001 8.000000e-001
      vertex   -1.759000e+002 6.260000e+001 -2.000000e-001
    endloop
  endfacet
  facet normal -9.874524e-001 7.061739e-002 0.000000e+000
    outer loop
      vertex   -1.759000e+002 6.260000e+001 -2.000000e-001
      vertex   -1.758898e+002 6.274231e+001 8.000000e-001
      vertex   -1.758898e+002 6.274231e+001 -2.000000e-001
    endloop
  endfacet
  facet normal -1.380218e-001 3.001524e-002 0.000000e+000
    outer loop
      vertex   -1.758898e+002 6.274231e+001 -2.000000e-001
      vertex   -1.758898e+002 6.274231e+001 8.000000e-001
      vertex   -1.758595e+002 6.288173e+001 8.000000e-001
    endloop
  endfacet
  facet normal -9.673642e-001 2.103702e-001 -3.469447e-018
    outer loop
      vertex   -1.758898e+002 6.274231e+001 -2.000000e-001
      vertex   -1.758595e+002 6.288173e+001 8.000000e-001
      vertex   -1.758595e+002 6.288173e+001 -2.000000e-001
    endloop
  endfacet
  facet normal -1.323420e-001 4.936577e-002 0.000000e+000
    outer loop
      vertex   -1.758595e+002 6.288173e+001 -2.000000e-001
      vertex   -1.758595e+002 6.288173e+001 8.000000e-001
      vertex   -1.758096e+002 6.301542e+001 8.000000e-001
    endloop
  endfacet
  facet normal -9.275450e-001 3.459898e-001 0.000000e+000
    outer loop
      vertex   -1.758595e+002 6.288173e+001 -2.000000e-001
      vertex   -1.758096e+002 6.301542e+001 8.000000e-001
      vertex   -1.758096e+002 6.301542e+001 -2.000000e-001
    endloop
  endfacet
  facet normal -1.239696e-001 6.768915e-002 0.000000e+000
    outer loop
      vertex   -1.758096e+002 6.301542e+001 -2.000000e-001
      vertex   -1.758096e+002 6.301542e+001 8.000000e-001
      vertex   -1.757413e+002 6.314064e+001 8.000000e-001
    endloop
  endfacet
  facet normal -8.688899e-001 4.744260e-001 6.938894e-018
    outer loop
      vertex   -1.758096e+002 6.301542e+001 -2.000000e-001
      vertex   -1.757413e+002 6.314064e+001 8.000000e-001
      vertex   -1.757413e+002 6.314064e+001 -2.000000e-001
    endloop
  endfacet
  facet normal -1.130745e-001 8.465291e-002 0.000000e+000
    outer loop
      vertex   -1.757413e+002 6.314064e+001 -2.000000e-001
      vertex   -1.757413e+002 6.314064e+001 8.000000e-001
      vertex   -1.756557e+002 6.325486e+001 8.000000e-001
    endloop
  endfacet
  facet normal -7.924932e-001 5.932980e-001 0.000000e+000
    outer loop
      vertex   -1.757413e+002 6.314064e+001 -2.000000e-001
      vertex   -1.756557e+002 6.325486e+001 8.000000e-001
      vertex   -1.756557e+002 6.325486e+001 -2.000000e-001
    endloop
  endfacet
  facet normal -9.987956e-002 9.987956e-002 0.000000e+000
    outer loop
      vertex   -1.756557e+002 6.325486e+001 -2.000000e-001
      vertex   -1.756557e+002 6.325486e+001 8.000000e-001
      vertex   -1.755549e+002 6.335575e+001 8.000000e-001
    endloop
  endfacet
  facet normal -7.000172e-001 7.000172e-001 0.000000e+000
    outer loop
      vertex   -1.756557e+002 6.325486e+001 -2.000000e-001
      vertex   -1.755549e+002 6.335575e+001 8.000000e-001
      vertex   -1.755549e+002 6.335575e+001 -2.000000e-001
    endloop
  endfacet
  facet normal -8.464548e-002 1.130671e-001 0.000000e+000
    outer loop
      vertex   -1.755549e+002 6.335575e+001 -2.000000e-001
      vertex   -1.755549e+002 6.335575e+001 8.000000e-001
      vertex   -1.754406e+002 6.344125e+001 8.000000e-001
    endloop
  endfacet
  facet normal -5.932903e-001 7.925008e-001 0.000000e+000
    outer loop
      vertex   -1.755549e+002 6.335575e+001 -2.000000e-001
      vertex   -1.754406e+002 6.344125e+001 8.000000e-001
      vertex   -1.754406e+002 6.344125e+001 -2.000000e-001
    endloop
  endfacet
  facet normal -6.769288e-002 1.239733e-001 0.000000e+000
    outer loop
      vertex   -1.754406e+002 6.344125e+001 -2.000000e-001
      vertex   -1.754406e+002 6.344125e+001 8.000000e-001
      vertex   -1.753154e+002 6.350963e+001 8.000000e-001
    endloop
  endfacet
  facet normal -4.744349e-001 8.688842e-001 0.000000e+000
    outer loop
      vertex   -1.754406e+002 6.344125e+001 -2.000000e-001
      vertex   -1.753154e+002 6.350963e+001 8.000000e-001
      vertex   -1.753154e+002 6.350963e+001 -2.000000e-001
    endloop
  endfacet
  facet normal -4.936200e-002 1.323420e-001 0.000000e+000
    outer loop
      vertex   -1.753154e+002 6.350963e+001 -2.000000e-001
      vertex   -1.753154e+002 6.350963e+001 8.000000e-001
      vertex   -1.751817e+002 6.355949e+001 8.000000e-001
    endloop
  endfacet
  facet normal -3.459667e-001 9.275538e-001 0.000000e+000
    outer loop
      vertex   -1.753154e+002 6.350963e+001 -2.000000e-001
      vertex   -1.751817e+002 6.355949e+001 8.000000e-001
      vertex   -1.751817e+002 6.355949e+001 -2.000000e-001
    endloop
  endfacet
  facet normal -3.002279e-002 1.380217e-001 0.000000e+000
    outer loop
      vertex   -1.751817e+002 6.355949e+001 -2.000000e-001
      vertex   -1.751817e+002 6.355949e+001 8.000000e-001
      vertex   -1.750423e+002 6.358982e+001 8.000000e-001
    endloop
  endfacet
  facet normal -2.104207e-001 9.673530e-001 3.469447e-018
    outer loop
      vertex   -1.751817e+002 6.355949e+001 -2.000000e-001
      vertex   -1.750423e+002 6.358982e+001 8.000000e-001
      vertex   -1.750423e+002 6.358982e+001 -2.000000e-001
    endloop
  endfacet
  facet normal -1.007557e-002 1.408918e-001 0.000000e+000
    outer loop
      vertex   -1.750423e+002 6.358982e+001 -2.000000e-001
      vertex   -1.750423e+002 6.358982e+001 8.000000e-001
      vertex   -1.749000e+002 6.360000e+001 8.000000e-001
    endloop
  endfacet
  facet normal -7.061547e-002 9.874520e-001 -1.734723e-018
    outer loop
      vertex   -1.750423e+002 6.358982e+001 -2.000000e-001
      vertex   -1.749000e+002 6.360000e+001 8.000000e-001
      vertex   -1.749000e+002 6.360000e+001 -2.000000e-001
    endloop
  endfacet
  facet normal 0.000000e+000 1.000000e+000 0.000000e+000
    outer loop
      vertex   -1.749000e+002 6.360000e+001 -2.000000e-001
      vertex   -1.749000e+002 6.360000e+001 8.000000e-001
      vertex   -1.519000e+002 6.360000e+001 -2.000000e-001
    endloop
  endfacet
  facet normal 0.000000e+000 9.990562e-001 -0.000000e+000
    outer loop
      vertex   -1.519000e+002 6.360000e+001 -2.000000e-001
      vertex   -1.749000e+002 6.360000e+001 8.000000e-001
      vertex   -1.519000e+002 6.360000e+001 8.000000e-001
    endloop
  endfacet
  facet normal 7.133826e-002 9.974522e-001 0.000000e+000
    outer loop
      vertex   -1.519000e+002 6.360000e+001 8.000000e-001
      vertex   -1.517577e+002 6.358982e+001 8.000000e-001
      vertex   -1.519000e+002 6.360000e+001 -2.000000e-001
    endloop
  endfacet
  facet normal 7.062315e-002 9.874536e-001 -1.734723e-018
    outer loop
      vertex   -1.519000e+002 6.360000e+001 -2.000000e-001
      vertex   -1.517577e+002 6.358982e+001 8.000000e-001
      vertex   -1.517577e+002 6.358982e+001 -2.000000e-001
    endloop
  endfacet
  facet normal 3.002279e-002 1.380217e-001 -0.000000e+000
    outer loop
      vertex   -1.517577e+002 6.358982e+001 -2.000000e-001
      vertex   -1.517577e+002 6.358982e+001 8.000000e-001
      vertex   -1.516183e+002 6.355949e+001 8.000000e-001
    endloop
  endfacet
  facet normal 2.104207e-001 9.673530e-001 -3.469447e-018
    outer loop
      vertex   -1.517577e+002 6.358982e+001 -2.000000e-001
      vertex   -1.516183e+002 6.355949e+001 8.000000e-001
      vertex   -1.516183e+002 6.355949e+001 -2.000000e-001
    endloop
  endfacet
  facet normal 4.936200e-002 1.323420e-001 -0.000000e+000
    outer loop
      vertex   -1.516183e+002 6.355949e+001 -2.000000e-001
      vertex   -1.516183e+002 6.355949e+001 8.000000e-001
      vertex   -1.514846e+002 6.350963e+001 8.000000e-001
    endloop
  endfacet
  facet normal 3.459667e-001 9.275538e-001 0.000000e+000
    outer loop
      vertex   -1.516183e+002 6.355949e+001 -2.000000e-001
      vertex   -1.514846e+002 6.350963e+001 8.000000e-001
      vertex   -1.514846e+002 6.350963e+001 -2.000000e-001
    endloop
  endfacet
  facet normal 6.769288e-002 1.239733e-001 -0.000000e+000
    outer loop
      vertex   -1.514846e+002 6.350963e+001 -2.000000e-001
      vertex   -1.514846e+002 6.350963e+001 8.000000e-001
      vertex   -1.513594e+002 6.344125e+001 8.000000e-001
    endloop
  endfacet
  facet normal 4.744349e-001 8.688842e-001 0.000000e+000
    outer loop
      vertex   -1.514846e+002 6.350963e+001 -2.000000e-001
      vertex   -1.513594e+002 6.344125e+001 8.000000e-001
      vertex   -1.513594e+002 6.344125e+001 -2.000000e-001
    endloop
  endfacet
  facet normal 8.464534e-002 1.130820e-001 -0.000000e+000
    outer loop
      vertex   -1.513594e+002 6.344125e+001 -2.000000e-001
      vertex   -1.513594e+002 6.344125e+001 8.000000e-001
      vertex   -1.512451e+002 6.335575e+001 8.000000e-001
    endloop
  endfacet
  facet normal 5.932385e-001 7.925375e-001 0.000000e+000
    outer loop
      vertex   -1.513594e+002 6.344125e+001 -2.000000e-001
      vertex   -1.512451e+002 6.335575e+001 8.000000e-001
      vertex   -1.512451e+002 6.335575e+001 -2.000000e-001
    endloop
  endfacet
  facet normal 9.987971e-002 9.986460e-002 -0.000000e+000
    outer loop
      vertex   -1.512451e+002 6.335575e+001 -2.000000e-001
      vertex   -1.512451e+002 6.335575e+001 8.000000e-001
      vertex   -1.511443e+002 6.325486e+001 8.000000e-001
    endloop
  endfacet
  facet normal 7.000712e-001 6.999653e-001 0.000000e+000
    outer loop
      vertex   -1.512451e+002 6.335575e+001 -2.000000e-001
      vertex   -1.511443e+002 6.325486e+001 8.000000e-001
      vertex   -1.511443e+002 6.325486e+001 -2.000000e-001
    endloop
  endfacet
  facet normal 1.130745e-001 8.465291e-002 -0.000000e+000
    outer loop
      vertex   -1.511443e+002 6.325486e+001 -2.000000e-001
      vertex   -1.511443e+002 6.325486e+001 8.000000e-001
      vertex   -1.510587e+002 6.314064e+001 8.000000e-001
    endloop
  endfacet
  facet normal 7.924932e-001 5.932980e-001 0.000000e+000
    outer loop
      vertex   -1.511443e+002 6.325486e+001 -2.000000e-001
      vertex   -1.510587e+002 6.314064e+001 8.000000e-001
      vertex   -1.510587e+002 6.314064e+001 -2.000000e-001
    endloop
  endfacet
  facet normal 1.239696e-001 6.768915e-002 -0.000000e+000
    outer loop
      vertex   -1.510587e+002 6.314064e+001 -2.000000e-001
      vertex   -1.510587e+002 6.314064e+001 8.000000e-001
      vertex   -1.509904e+002 6.301542e+001 8.000000e-001
    endloop
  endfacet
  facet normal 8.688899e-001 4.744260e-001 -6.938894e-018
    outer loop
      vertex   -1.510587e+002 6.314064e+001 -2.000000e-001
      vertex   -1.509904e+002 6.301542e+001 8.000000e-001
      vertex   -1.509904e+002 6.301542e+001 -2.000000e-001
    endloop
  endfacet
  facet normal 1.323420e-001 4.936577e-002 -0.000000e+000
    outer loop
      vertex   -1.509904e+002 6.301542e+001 -2.000000e-001
      vertex   -1.509904e+002 6.301542e+001 8.000000e-001
      vertex   -1.509405e+002 6.288173e+001 8.000000e-001
    endloop
  endfacet
  facet normal 9.275450e-001 3.459898e-001 0.000000e+000
    outer loop
      vertex   -1.509904e+002 6.301542e+001 -2.000000e-001
      vertex   -1.509405e+002 6.288173e+001 8.000000e-001
      vertex   -1.509405e+002 6.288173e+001 -2.000000e-001
    endloop
  endfacet
  facet normal 1.380217e-001 3.003033e-002 -0.000000e+000
    outer loop
      vertex   -1.509405e+002 6.288173e+001 -2.000000e-001
      vertex   -1.509405e+002 6.288173e+001 8.000000e-001
      vertex   -1.509102e+002 6.274231e+001 8.000000e-001
    endloop
  endfacet
  facet normal 9.673417e-001 2.104712e-001 6.938894e-018
    outer loop
      vertex   -1.509405e+002 6.288173e+001 -2.000000e-001
      vertex   -1.509102e+002 6.274231e+001 8.000000e-001
      vertex   -1.509102e+002 6.274231e+001 -2.000000e-001
    endloop
  endfacet
  facet normal 1.408881e-001 1.007557e-002 -0.000000e+000
    outer loop
      vertex   -1.509102e+002 6.274231e+001 -2.000000e-001
      vertex   -1.509102e+002 6.274231e+001 8.000000e-001
      vertex   -1.509000e+002 6.260000e+001 8.000000e-001
    endloop
  endfacet
  facet normal 9.874524e-001 7.061739e-002 0.000000e+000
    outer loop
      vertex   -1.509102e+002 6.274231e+001 -2.000000e-001
      vertex   -1.509000e+002 6.260000e+001 8.000000e-001
      vertex   -1.509000e+002 6.260000e+001 -2.000000e-001
    endloop
  endfacet
  facet normal 0.000000e+000 -1.000000e+000 0.000000e+000
    outer loop
      vertex   -1.519000e+002 2.600000e+000 -2.000000e-001
      vertex   -1.519000e+002 2.600000e+000 8.000000e-001
      vertex   -1.749000e+002 2.600000e+000 -2.000000e-001
    endloop
  endfacet
  facet normal 0.000000e+000 -9.990562e-001 0.000000e+000
    outer loop
      vertex   -1.749000e+002 2.600000e+000 -2.000000e-001
      vertex   -1.519000e+002 2.600000e+000 8.000000e-001
      vertex   -1.749000e+002 2.600000e+000 8.000000e-001
    endloop
  endfacet
  facet normal 1.000000e+000 0.000000e+000 0.000000e+000
    outer loop
      vertex   -1.524000e+002 4.100000e+000 8.000000e-001
      vertex   -1.524000e+002 3.310000e+001 8.000000e-001
      vertex   -1.524000e+002 4.100000e+000 1.800000e+000
    endloop
  endfacet
  facet normal 3.446228e-002 -0.000000e+000 0.000000e+000
    outer loop
      vertex   -1.524000e+002 4.100000e+000 1.800000e+000
      vertex   -1.524000e+002 3.310000e+001 8.000000e-001
      vertex   -1.524000e+002 3.310000e+001 1.800000e+000
    endloop
  endfacet
  facet normal 9.994060e-001 0.000000e+000 0.000000e+000
    outer loop
      vertex   -1.524000e+002 3.310000e+001 1.800000e+000
      vertex   -1.524000e+002 3.310000e+001 8.000000e-001
      vertex   -1.524000e+002 6.210000e+001 8.000000e-001
    endloop
  endfacet
  facet normal 3.446227e-002 -0.000000e+000 0.000000e+000
    outer loop
      vertex   -1.524000e+002 3.310000e+001 1.800000e+000
      vertex   -1.524000e+002 6.210000e+001 8.000000e-001
      vertex   -1.524000e+002 6.210000e+001 1.800000e+000
    endloop
  endfacet
  facet normal 0.000000e+000 1.000000e+000 0.000000e+000
    outer loop
      vertex   -1.744000e+002 6.210000e+001 8.000000e-001
      vertex   -1.744000e+002 6.210000e+001 1.800000e+000
      vertex   -1.524000e+002 6.210000e+001 8.000000e-001
    endloop
  endfacet
  facet normal 0.000000e+000 9.989685e-001 -0.000000e+000
    outer loop
      vertex   -1.524000e+002 6.210000e+001 8.000000e-001
      vertex   -1.744000e+002 6.210000e+001 1.800000e+000
      vertex   -1.524000e+002 6.210000e+001 1.800000e+000
    endloop
  endfacet
  facet normal 0.000000e+000 0.000000e+000 3.880570e-001
    outer loop
      vertex   -1.649000e+002 5.810000e+001 1.800000e+000
      vertex   -1.744000e+002 6.210000e+001 1.800000e+000
      vertex   -1.659000e+002 5.810000e+001 1.800000e+000
    endloop
  endfacet
  facet normal 0.000000e+000 0.000000e+000 4.257970e-001
    outer loop
      vertex   -1.659000e+002 5.810000e+001 1.800000e+000
      vertex   -1.744000e+002 6.210000e+001 1.800000e+000
      vertex   -1.669000e+002 5.810000e+001 1.800000e+000
    endloop
  endfacet
  facet normal 0.000000e+000 0.000000e+000 1.000000e+000
    outer loop
      vertex   -1.659000e+002 5.810000e+001 1.800000e+000
      vertex   -1.669000e+002 5.810000e+001 1.800000e+000
      vertex   -1.659000e+002 8.100000e+000 1.800000e+000
    endloop
  endfacet
  facet normal 0.000000e+000 0.000000e+000 9.998001e-001
    outer loop
      vertex   -1.659000e+002 8.100000e+000 1.800000e+000
      vertex   -1.669000e+002 5.810000e+001 1.800000e+000
      vertex   -1.669000e+002 8.100000e+000 1.800000e+000
    endloop
  endfacet
  facet normal 0.000000e+000 0.000000e+000 4.257971e-001
    outer loop
      vertex   -1.659000e+002 8.100000e+000 1.800000e+000
      vertex   -1.669000e+002 8.100000e+000 1.800000e+000
      vertex   -1.744000e+002 4.100000e+000 1.800000e+000
    endloop
  endfacet
  facet normal 0.000000e+000 0.000000e+000 6.165852e-002
    outer loop
      vertex   -1.744000e+002 4.100000e+000 1.800000e+000
      vertex   -1.669000e+002 8.100000e+000 1.800000e+000
      vertex   -1.679000e+002 8.100000e+000 1.800000e+000
    endloop
  endfacet
  facet normal 0.000000e+000 0.000000e+000 8.516583e-001
    outer loop
      vertex   -1.744000e+002 4.100000e+000 1.800000e+000
      vertex   -1.679000e+002 8.100000e+000 1.800000e+000
      vertex   -1.744000e+002 3.310000e+001 1.800000e+000
    endloop
  endfacet
  facet normal -0.000000e+000 0.000000e+000 4.870738e-001
    outer loop
      vertex   -1.744000e+002 3.310000e+001 1.800000e+000
      vertex   -1.679000e+002 8.100000e+000 1.800000e+000
      vertex   -1.679000e+002 5.810000e+001 1.800000e+000
    endloop
  endfacet
  facet normal 0.000000e+000 0.000000e+000 2.516339e-001
    outer loop
      vertex   -1.744000e+002 3.310000e+001 1.800000e+000
      vertex   -1.679000e+002 5.810000e+001 1.800000e+000
      vertex   -1.744000e+002 6.210000e+001 1.800000e+000
    endloop
  endfacet
  facet normal 0.000000e+000 0.000000e+000 6.165852e-002
    outer loop
      vertex   -1.744000e+002 6.210000e+001 1.800000e+000
      vertex   -1.679000e+002 5.810000e+001 1.800000e+000
      vertex   -1.669000e+002 5.810000e+001 1.800000e+000
    endloop
  endfacet
  facet normal 0.000000e+000 0.000000e+000 1.000000e+000
    outer loop
      vertex   -1.649000e+002 8.100000e+000 1.800000e+000
      vertex   -1.639000e+002 8.100000e+000 1.800000e+000
      vertex   -1.649000e+002 5.810000e+001 1.800000e+000
    endloop
  endfacet
  facet normal -0.000000e+000 0.000000e+000 9.998001e-001
    outer loop
      vertex   -1.649000e+002 5.810000e+001 1.800000e+000
      vertex   -1.639000e+002 8.100000e+000 1.800000e+000
      vertex   -1.639000e+002 5.810000e+001 1.800000e+000
    endloop
  endfacet
  facet normal 0.000000e+000 -0.000000e+000 3.880570e-001
    outer loop
      vertex   -1.649000e+002 5.810000e+001 1.800000e+000
      vertex   -1.639000e+002 5.810000e+001 1.800000e+000
      vertex   -1.744000e+002 6.210000e+001 1.800000e+000
    endloop
  endfacet
  facet normal 0.000000e+000 0.000000e+000 2.923795e-002
    outer loop
      vertex   -1.744000e+002 6.210000e+001 1.800000e+000
      vertex   -1.639000e+002 5.810000e+001 1.800000e+000
      vertex   -1.629000e+002 5.810000e+001 1.800000e+000
    endloop
  endfacet
  facet normal -0.000000e+000 0.000000e+000 3.285206e-001
    outer loop
      vertex   -1.744000e+002 6.210000e+001 1.800000e+000
      vertex   -1.629000e+002 5.810000e+001 1.800000e+000
      vertex   -1.524000e+002 6.210000e+001 1.800000e+000
    endloop
  endfacet
  facet normal 0.000000e+000 0.000000e+000 3.453662e-002
    outer loop
      vertex   -1.524000e+002 6.210000e+001 1.800000e+000
      vertex   -1.629000e+002 5.810000e+001 1.800000e+000
      vertex   -1.619000e+002 5.810000e+001 1.800000e+000
    endloop
  endfacet
  facet normal 0.000000e+000 0.000000e+000 4.130838e-002
    outer loop
      vertex   -1.524000e+002 6.210000e+001 1.800000e+000
      vertex   -1.619000e+002 5.810000e+001 1.800000e+000
      vertex   -1.609000e+002 5.810000e+001 1.800000e+000
    endloop
  endfacet
  facet normal 0.000000e+000 0.000000e+000 3.559954e-001
    outer loop
      vertex   -1.639000e+002 8.100000e+000 1.800000e+000
      vertex   -1.649000e+002 8.100000e+000 1.800000e+000
      vertex   -1.744000e+002 4.100000e+000 1.800000e+000
    endloop
  endfacet
  facet normal 0.000000e+000 0.000000e+000 4.130838e-002
    outer loop
      vertex   -1.744000e+002 4.100000e+000 1.800000e+000
      vertex   -1.649000e+002 8.100000e+000 1.800000e+000
      vertex   -1.659000e+002 8.100000e+000 1.800000e+000
    endloop
  endfacet
  facet normal 0.000000e+000 -0.000000e+000 5.240974e-001
    outer loop
      vertex   -1.589000e+002 5.810000e+001 1.800000e+000
      vertex   -1.524000e+002 6.210000e+001 1.800000e+000
      vertex   -1.599000e+002 5.810000e+001 1.800000e+000
    endloop
  endfacet
  facet normal 0.000000e+000 -0.000000e+000 4.705882e-001
    outer loop
      vertex   -1.599000e+002 5.810000e+001 1.800000e+000
      vertex   -1.524000e+002 6.210000e+001 1.800000e+000
      vertex   -1.609000e+002 5.810000e+001 1.800000e+000
    endloop
  endfacet
  facet normal 0.000000e+000 0.000000e+000 1.000000e+000
    outer loop
      vertex   -1.599000e+002 5.810000e+001 1.800000e+000
      vertex   -1.609000e+002 5.810000e+001 1.800000e+000
      vertex   -1.599000e+002 8.100000e+000 1.800000e+000
    endloop
  endfacet
  facet normal 0.000000e+000 0.000000e+000 9.998001e-001
    outer loop
      vertex   -1.599000e+002 8.100000e+000 1.800000e+000
      vertex   -1.609000e+002 5.810000e+001 1.800000e+000
      vertex   -1.609000e+002 8.100000e+000 1.800000e+000
    endloop
  endfacet
  facet normal 0.000000e+000 0.000000e+000 4.705883e-001
    outer loop
      vertex   -1.599000e+002 8.100000e+000 1.800000e+000
      vertex   -1.609000e+002 8.100000e+000 1.800000e+000
      vertex   -1.524000e+002 4.100000e+000 1.800000e+000
    endloop
  endfacet
  facet normal 0.000000e+000 0.000000e+000 4.130838e-002
    outer loop
      vertex   -1.524000e+002 4.100000e+000 1.800000e+000
      vertex   -1.609000e+002 8.100000e+000 1.800000e+000
      vertex   -1.619000e+002 8.100000e+000 1.800000e+000
    endloop
  endfacet
  facet normal 0.000000e+000 0.000000e+000 3.453662e-002
    outer loop
      vertex   -1.524000e+002 4.100000e+000 1.800000e+000
      vertex   -1.619000e+002 8.100000e+000 1.800000e+000
      vertex   -1.629000e+002 8.100000e+000 1.800000e+000
    endloop
  endfacet
  facet normal 0.000000e+000 0.000000e+000 1.000000e+000
    outer loop
      vertex   -1.629000e+002 8.100000e+000 1.800000e+000
      vertex   -1.619000e+002 8.100000e+000 1.800000e+000
      vertex   -1.629000e+002 5.810000e+001 1.800000e+000
    endloop
  endfacet
  facet normal -0.000000e+000 0.000000e+000 9.998001e-001
    outer loop
      vertex   -1.629000e+002 5.810000e+001 1.800000e+000
      vertex   -1.619000e+002 8.100000e+000 1.800000e+000
      vertex   -1.619000e+002 5.810000e+001 1.800000e+000
    endloop
  endfacet
  facet normal 0.000000e+000 0.000000e+000 8.516583e-001
    outer loop
      vertex   -1.524000e+002 6.210000e+001 1.800000e+000
      vertex   -1.589000e+002 5.810000e+001 1.800000e+000
      vertex   -1.524000e+002 3.310000e+001 1.800000e+000
    endloop
  endfacet
  facet normal 0.000000e+000 0.000000e+000 4.870738e-001
    outer loop
      vertex   -1.524000e+002 3.310000e+001 1.800000e+000
      vertex   -1.589000e+002 5.810000e+001 1.800000e+000
      vertex   -1.589000e+002 8.100000e+000 1.800000e+000
    endloop
  endfacet
  facet normal 0.000000e+000 0.000000e+000 2.516339e-001
    outer loop
      vertex   -1.524000e+002 3.310000e+001 1.800000e+000
      vertex   -1.589000e+002 8.100000e+000 1.800000e+000
      vertex   -1.524000e+002 4.100000e+000 1.800000e+000
    endloop
  endfacet
  facet normal 0.000000e+000 0.000000e+000 6.165852e-002
    outer loop
      vertex   -1.524000e+002 4.100000e+000 1.800000e+000
      vertex   -1.589000e+002 8.100000e+000 1.800000e+000
      vertex   -1.599000e+002 8.100000e+000 1.800000e+000
    endloop
  endfacet
  facet normal 0.000000e+000 0.000000e+000 3.559954e-001
    outer loop
      vertex   -1.629000e+002 8.100000e+000 1.800000e+000
      vertex   -1.639000e+002 8.100000e+000 1.800000e+000
      vertex   -1.524000e+002 4.100000e+000 1.800000e+000
    endloop
  endfacet
  facet normal 0.000000e+000 0.000000e+000 3.285207e-001
    outer loop
      vertex   -1.524000e+002 4.100000e+000 1.800000e+000
      vertex   -1.639000e+002 8.100000e+000 1.800000e+000
      vertex   -1.744000e+002 4.100000e+000 1.800000e+000
    endloop
  endfacet
  facet normal -1.000000e+000 0.000000e+000 0.000000e+000
    outer loop
      vertex   -1.744000e+002 6.210000e+001 8.000000e-001
      vertex   -1.744000e+002 3.310000e+001 8.000000e-001
      vertex   -1.744000e+002 6.210000e+001 1.800000e+000
    endloop
  endfacet
  facet normal -3.446227e-002 -0.000000e+000 0.000000e+000
    outer loop
      vertex   -1.744000e+002 6.210000e+001 1.800000e+000
      vertex   -1.744000e+002 3.310000e+001 8.000000e-001
      vertex   -1.744000e+002 3.310000e+001 1.800000e+000
    endloop
  endfacet
  facet normal -9.994060e-001 0.000000e+000 -0.000000e+000
    outer loop
      vertex   -1.744000e+002 3.310000e+001 1.800000e+000
      vertex   -1.744000e+002 3.310000e+001 8.000000e-001
      vertex   -1.744000e+002 4.100000e+000 8.000000e-001
    endloop
  endfacet
  facet normal -3.446228e-002 -0.000000e+000 0.000000e+000
    outer loop
      vertex   -1.744000e+002 3.310000e+001 1.800000e+000
      vertex   -1.744000e+002 4.100000e+000 8.000000e-001
      vertex   -1.744000e+002 4.100000e+000 1.800000e+000
    endloop
  endfacet
  facet normal 0.000000e+000 -1.000000e+000 0.000000e+000
    outer loop
      vertex   -1.524000e+002 4.100000e+000 8.000000e-001
      vertex   -1.524000e+002 4.100000e+000 1.800000e+000
      vertex   -1.744000e+002 4.100000e+000 8.000000e-001
    endloop
  endfacet
  facet normal 0.000000e+000 -9.989685e-001 0.000000e+000
    outer loop
      vertex   -1.744000e+002 4.100000e+000 8.000000e-001
      vertex   -1.524000e+002 4.100000e+000 1.800000e+000
      vertex   -1.744000e+002 4.100000e+000 1.800000e+000
    endloop
  endfacet
endsolid
